<?xml version="1.0" encoding="utf-8"?>
<!-- Generator: Adobe Illustrator 20.0.0, SVG Export Plug-In . SVG Version: 6.00 Build 0)  -->
<!DOCTYPE svg PUBLIC "-//W3C//DTD SVG 1.1//EN" "http://www.w3.org/Graphics/SVG/1.1/DTD/svg11.dtd">
<svg version="1.1" id="Layer_1" xmlns="http://www.w3.org/2000/svg" xmlns:xlink="http://www.w3.org/1999/xlink" x="0px" y="0px"
	 viewBox="0 0 210.9 70.9" style="enable-background:new 0 0 210.9 70.9;" xml:space="preserve">
<style type="text/css">
	.st0{clip-path:url(#SVGID_2_);fill:url(#SVGID_3_);}
	.st1{fill:#FFFFFF;}
	.st2{clip-path:url(#SVGID_5_);fill:#FFFFFF;}
	.st3{clip-path:url(#SVGID_7_);fill:none;stroke:#000000;stroke-width:0.25;}
	.st4{clip-path:url(#SVGID_9_);}
	.st5{clip-path:url(#SVGID_11_);enable-background:new    ;}
	.st6{clip-path:url(#SVGID_13_);}
	.st7{clip-path:url(#SVGID_15_);}
	.st8{fill:#575756;}
	.st9{clip-path:url(#SVGID_17_);}
	.st10{clip-path:url(#SVGID_19_);fill:url(#SVGID_20_);}
</style>
<g>
	<defs>
		<rect id="SVGID_1_" x="302.6" y="-47.5" width="248.8" height="164"/>
	</defs>
	<clipPath id="SVGID_2_">
		<use xlink:href="#SVGID_1_"  style="overflow:visible;"/>
	</clipPath>
	
		<linearGradient id="SVGID_3_" gradientUnits="userSpaceOnUse" x1="-18.5179" y1="120.3366" x2="-17.5181" y2="120.3366" gradientTransform="matrix(270.796 0 0 -270.796 5305.1504 32621.1406)">
		<stop  offset="0" style="stop-color:#009FE3"/>
		<stop  offset="1" style="stop-color:#004F9F"/>
	</linearGradient>
	<rect x="302.6" y="-47.5" class="st0" width="248.8" height="164"/>
</g>
<polyline class="st1" points="394.6,48.2 394.1,48.2 393.2,45.6 392.3,48.2 391.8,48.2 390.7,44.8 391.3,44.8 392.1,47.6 393,44.8 
	393.4,44.8 394.3,47.6 395.1,44.8 395.7,44.8 394.6,48.2 "/>
<polyline class="st1" points="399.6,48.2 399.2,48.2 398.3,45.6 397.4,48.2 396.9,48.2 395.8,44.8 396.3,44.8 397.1,47.6 398,44.8 
	398.5,44.8 399.4,47.6 400.2,44.8 400.7,44.8 399.6,48.2 "/>
<polyline class="st1" points="404.7,48.2 404.2,48.2 403.3,45.6 402.4,48.2 402,48.2 400.9,44.8 401.4,44.8 402.2,47.6 403.1,44.8 
	403.5,44.8 404.5,47.6 405.2,44.8 405.8,44.8 404.7,48.2 "/>
<rect x="406.5" y="47.6" class="st1" width="0.7" height="0.7"/>
<path class="st1" d="M409.6,45.2c-0.8,0-0.9,0.6-0.9,1.3c0,0.7,0.1,1.3,0.9,1.3c0.7,0,0.9-0.6,0.9-1.3
	C410.4,45.9,410.3,45.2,409.6,45.2 M410.4,48.2v-0.4c-0.3,0.4-0.6,0.5-1,0.5c-0.3,0-0.7-0.1-0.8-0.3c-0.3-0.3-0.4-0.9-0.4-1.5
	c0-0.5,0.1-1.1,0.4-1.5c0.2-0.2,0.5-0.3,0.8-0.3c0.4,0,0.7,0.1,1,0.4v-1.9h0.5v5H410.4z"/>
<path class="st1" d="M412.8,45.2v3h-0.5v-3h-0.4v-0.4h0.4v-0.7c0-0.5,0.3-0.9,0.9-0.9h0.4v0.4h-0.3c-0.3,0-0.5,0.2-0.5,0.5v0.6h0.7
	v0.4H412.8"/>
<path class="st1" d="M416.3,45.5c-0.2-0.2-0.3-0.3-0.6-0.3c-0.5,0-0.8,0.4-0.8,0.9v2.1h-0.5v-3.4h0.5v0.4c0.2-0.3,0.6-0.5,1-0.5
	c0.3,0,0.6,0.1,0.8,0.3L416.3,45.5"/>
<path class="st1" d="M418.4,48.3c-0.6,0-1-0.1-1.4-0.5l0.3-0.3c0.3,0.3,0.6,0.4,1.1,0.4c0.6,0,0.9-0.2,0.9-0.6
	c0-0.3-0.2-0.5-0.6-0.5l-0.6-0.1c-0.7-0.1-1-0.4-1-0.9c0-0.6,0.5-1,1.3-1c0.5,0,0.9,0.1,1.2,0.4l-0.3,0.3c-0.2-0.2-0.6-0.3-0.9-0.3
	c-0.5,0-0.8,0.2-0.8,0.6c0,0.3,0.2,0.5,0.6,0.5l0.6,0c0.6,0.1,1,0.3,1,0.9C419.8,47.9,419.3,48.3,418.4,48.3"/>
<path class="st1" d="M422.7,45.5c-0.2-0.2-0.4-0.3-0.6-0.3c-0.2,0-0.5,0.1-0.6,0.3c-0.3,0.3-0.3,0.7-0.3,1.1c0,0.4,0,0.8,0.3,1.1
	c0.2,0.2,0.4,0.3,0.6,0.3c0.2,0,0.5-0.1,0.6-0.3c0.3-0.3,0.3-0.7,0.3-1.1C422.9,46.1,422.9,45.7,422.7,45.5 M423,47.9
	c-0.2,0.2-0.6,0.4-1,0.4c-0.4,0-0.8-0.2-1-0.4c-0.3-0.4-0.4-0.8-0.4-1.4c0-0.5,0.1-1,0.4-1.4c0.2-0.2,0.6-0.4,1-0.4
	c0.4,0,0.7,0.2,1,0.4c0.3,0.4,0.4,0.8,0.4,1.4C423.4,47.1,423.4,47.5,423,47.9z"/>
<path class="st1" d="M425.4,48.2c-0.6,0-0.9-0.4-0.9-0.9v-4.1h0.5v4c0,0.3,0.1,0.5,0.5,0.5h0.3v0.4H425.4"/>
<path class="st1" d="M427.1,48.2h-0.5v-3.4h0.5V48.2z M427.1,43.8h-0.6v-0.6h0.6V43.8z"/>
<path class="st1" d="M429.7,48.3c-0.9,0-1.5-0.6-1.5-1.8c0-1.2,0.7-1.8,1.5-1.8c0.5,0,0.8,0.1,1.1,0.5l-0.3,0.3
	c-0.3-0.3-0.5-0.4-0.8-0.4c-0.3,0-0.6,0.1-0.8,0.4c-0.2,0.2-0.2,0.5-0.2,0.9c0,0.4,0.1,0.7,0.2,0.9c0.2,0.3,0.5,0.4,0.8,0.4
	c0.3,0,0.5-0.1,0.8-0.4l0.3,0.3C430.5,48.2,430.2,48.3,429.7,48.3"/>
<path class="st1" d="M432.3,48.2h-0.5v-3.4h0.5V48.2z M432.3,43.8h-0.6v-0.6h0.6V43.8z"/>
<path class="st1" d="M434.5,48.2c-0.6,0-0.9-0.4-0.9-0.9v-2.1h-0.4v-0.4h0.4v-1.1h0.5v1.1h0.7v0.4h-0.7v2.1c0,0.3,0.1,0.5,0.5,0.5
	h0.3v0.4H434.5"/>
<path class="st1" d="M437.8,45.5c-0.2-0.2-0.4-0.3-0.6-0.3c-0.2,0-0.5,0.1-0.6,0.3c-0.3,0.3-0.3,0.7-0.3,1.1c0,0.4,0,0.8,0.3,1.1
	c0.2,0.2,0.4,0.3,0.6,0.3c0.2,0,0.5-0.1,0.6-0.3c0.3-0.3,0.3-0.7,0.3-1.1C438,46.1,438,45.7,437.8,45.5 M438.1,47.9
	c-0.2,0.2-0.6,0.4-1,0.4c-0.4,0-0.8-0.2-1-0.4c-0.4-0.4-0.4-0.8-0.4-1.4c0-0.5,0.1-1,0.4-1.4c0.2-0.2,0.6-0.4,1-0.4
	c0.4,0,0.8,0.2,1,0.4c0.3,0.4,0.4,0.8,0.4,1.4C438.5,47.1,438.5,47.5,438.1,47.9z"/>
<path class="st1" d="M441.5,45.5c-0.2-0.2-0.3-0.3-0.6-0.3c-0.5,0-0.8,0.4-0.8,0.9v2.1h-0.5v-3.4h0.5v0.4c0.2-0.3,0.6-0.5,1-0.5
	c0.3,0,0.6,0.1,0.8,0.3L441.5,45.5"/>
<path class="st1" d="M443.6,48.3c-0.6,0-1-0.1-1.4-0.5l0.3-0.3c0.3,0.3,0.6,0.4,1.1,0.4c0.6,0,0.9-0.2,0.9-0.6
	c0-0.3-0.2-0.5-0.6-0.5l-0.6-0.1c-0.7-0.1-1-0.4-1-0.9c0-0.6,0.5-1,1.3-1c0.5,0,0.9,0.1,1.2,0.4l-0.3,0.3c-0.2-0.2-0.6-0.3-0.9-0.3
	c-0.5,0-0.8,0.2-0.8,0.6c0,0.3,0.2,0.5,0.6,0.5l0.6,0c0.6,0.1,1,0.3,1,0.9C445,47.9,444.5,48.3,443.6,48.3"/>
<rect x="446" y="47.6" class="st1" width="0.7" height="0.7"/>
<path class="st1" d="M449.3,48.3c-0.9,0-1.5-0.6-1.5-1.8c0-1.2,0.7-1.8,1.5-1.8c0.5,0,0.8,0.1,1.1,0.5l-0.3,0.3
	c-0.3-0.3-0.5-0.4-0.8-0.4c-0.3,0-0.6,0.1-0.8,0.4c-0.2,0.2-0.2,0.5-0.2,0.9c0,0.4,0.1,0.7,0.2,0.9c0.2,0.3,0.5,0.4,0.8,0.4
	c0.3,0,0.5-0.1,0.8-0.4l0.3,0.3C450,48.2,449.7,48.3,449.3,48.3"/>
<path class="st1" d="M453.2,45.5c-0.2-0.2-0.4-0.3-0.6-0.3c-0.2,0-0.5,0.1-0.6,0.3c-0.3,0.3-0.3,0.7-0.3,1.1c0,0.4,0,0.8,0.3,1.1
	c0.2,0.2,0.4,0.3,0.6,0.3c0.2,0,0.5-0.1,0.6-0.3c0.3-0.3,0.3-0.7,0.3-1.1C453.5,46.1,453.5,45.7,453.2,45.5 M453.6,47.9
	c-0.2,0.2-0.6,0.4-1,0.4c-0.4,0-0.8-0.2-1-0.4c-0.3-0.4-0.4-0.8-0.4-1.4c0-0.5,0.1-1,0.4-1.4c0.2-0.2,0.6-0.4,1-0.4
	c0.4,0,0.7,0.2,1,0.4c0.3,0.4,0.4,0.8,0.4,1.4C454,47.1,453.9,47.5,453.6,47.9z"/>
<rect x="455" y="47.6" class="st1" width="0.7" height="0.7"/>
<path class="st1" d="M459.1,48.2v-0.4c-0.2,0.3-0.6,0.4-1,0.4c-0.4,0-0.7-0.1-0.9-0.3c-0.2-0.2-0.4-0.6-0.4-1v-2.2h0.5v2.1
	c0,0.6,0.3,0.9,0.8,0.9c0.5,0,0.9-0.3,0.9-0.9v-2.1h0.5v3.4H459.1"/>
<polyline class="st1" points="463.1,48.2 462.1,46.5 461.4,47.3 461.4,48.2 460.9,48.2 460.9,43.3 461.4,43.3 461.4,46.6 
	462.9,44.8 463.6,44.8 462.4,46.1 463.8,48.2 463.1,48.2 "/>
<path class="st1" d="M395.9,23.2c-0.4-0.5-0.9-0.7-1.6-0.7h-1.6v7.3h1.6c0.8,0,1.3-0.2,1.6-0.7c0.4-0.5,0.5-1.3,0.5-3
	C396.4,24.4,396.3,23.7,395.9,23.2 M397.4,30.6c-0.7,0.7-1.8,1.1-2.9,1.1h-4V20.5h4c1.2,0,2.2,0.3,2.9,1.1c1.3,1.3,1.1,2.8,1.1,4.5
	C398.5,27.8,398.7,29.4,397.4,30.6"/>
<polyline class="st1" points="403,22.5 403,25.2 407.4,25.2 407.4,27.2 403,27.2 403,31.7 400.8,31.7 400.8,20.5 408.1,20.5 
	408.1,22.5 403,22.5 "/>
<path class="st1" d="M414.3,22.5h-2.1v2.9h2.1c1,0,1.6-0.6,1.6-1.5C415.8,23.1,415.2,22.5,414.3,22.5 M415.9,31.7l-2.2-4.5h-1.6v4.5
	H410V20.5h4.4c2.3,0,3.6,1.6,3.6,3.4c0,1.6-1,2.5-2,2.9l2.5,4.8H415.9z"/>
<path class="st1" d="M427,31.8c-1.7,0-3-0.4-4.1-1.5l1.4-1.4c0.7,0.7,1.7,0.9,2.7,0.9c1.3,0,2-0.5,2-1.4c0-0.4-0.1-0.7-0.3-0.9
	c-0.2-0.2-0.5-0.3-1-0.4l-1.3-0.2c-1-0.1-1.7-0.4-2.2-0.9c-0.5-0.5-0.8-1.2-0.8-2.2c0-2,1.5-3.4,3.9-3.4c1.5,0,2.6,0.4,3.6,1.3
	l-1.4,1.4c-0.7-0.7-1.5-0.8-2.3-0.8c-1.2,0-1.7,0.6-1.7,1.4c0,0.3,0.1,0.6,0.3,0.8c0.2,0.2,0.6,0.4,1,0.4l1.3,0.2
	c1,0.1,1.7,0.4,2.1,0.9c0.6,0.6,0.9,1.4,0.9,2.4C431.1,30.6,429.3,31.8,427,31.8"/>
<path class="st1" d="M437.1,25.6c-0.2-0.2-0.5-0.4-1-0.4c-0.4,0-0.7,0.1-0.9,0.4c-0.4,0.4-0.5,1.1-0.5,2c0,0.8,0,1.6,0.5,2
	c0.2,0.2,0.5,0.4,0.9,0.4c0.4,0,0.7-0.1,1-0.4c0.4-0.4,0.5-1.1,0.5-2C437.5,26.8,437.5,26.1,437.1,25.6 M438.7,30.8
	c-0.5,0.5-1.3,1-2.5,1c-1.2,0-2-0.5-2.5-1c-0.7-0.8-0.9-1.7-0.9-3.2c0-1.5,0.2-2.4,0.9-3.2c0.5-0.5,1.3-1,2.5-1c1.2,0,2,0.5,2.5,1
	c0.7,0.8,0.9,1.7,0.9,3.2C439.6,29.1,439.4,30,438.7,30.8"/>
<path class="st1" d="M443.8,31.7c-1.7,0-2.4-1.2-2.4-2.3v-8.8h2v8.7c0,0.5,0.2,0.7,0.7,0.7h0.8v1.7H443.8"/>
<path class="st1" d="M446.6,23.5h2v8.2h-2V23.5z M446.6,20.5h2.1v1.7h-2.1V20.5z"/>
<path class="st1" d="M454.2,31.8c-1.6,0-3.6-0.9-3.6-4.2c0-3.3,2-4.2,3.6-4.2c1.1,0,2,0.3,2.7,1.1l-1.4,1.4
	c-0.4-0.5-0.8-0.6-1.3-0.6c-0.5,0-0.9,0.2-1.2,0.5c-0.3,0.4-0.5,0.9-0.5,1.8c0,0.9,0.1,1.4,0.5,1.8c0.3,0.4,0.7,0.5,1.2,0.5
	c0.5,0,0.9-0.2,1.3-0.6l1.4,1.4C456.1,31.4,455.3,31.8,454.2,31.8"/>
<path class="st1" d="M458.4,23.5h2v8.2h-2V23.5z M458.4,20.5h2.1v1.7h-2.1V20.5z"/>
<path class="st1" d="M465.3,31.7c-1.7,0-2.4-1.2-2.4-2.3v-4h-0.9v-1.6h0.9v-2.4h2v2.4h1.4v1.6H465v3.9c0,0.5,0.2,0.7,0.7,0.7h0.7
	v1.7H465.3"/>
<path class="st1" d="M472.3,25.6c-0.2-0.2-0.5-0.4-1-0.4c-0.4,0-0.7,0.1-0.9,0.4c-0.4,0.4-0.5,1.1-0.5,2c0,0.8,0,1.6,0.5,2
	c0.2,0.2,0.5,0.4,0.9,0.4c0.4,0,0.7-0.1,1-0.4c0.4-0.4,0.5-1.1,0.5-2C472.8,26.8,472.7,26.1,472.3,25.6 M473.9,30.8
	c-0.5,0.5-1.3,1-2.5,1c-1.2,0-2-0.5-2.5-1c-0.7-0.8-0.9-1.7-0.9-3.2c0-1.5,0.2-2.4,0.9-3.2c0.5-0.5,1.3-1,2.5-1c1.2,0,2,0.5,2.5,1
	c0.7,0.8,0.9,1.7,0.9,3.2C474.8,29.1,474.6,30,473.9,30.8"/>
<path class="st1" d="M481.2,25.8c-0.3-0.3-0.6-0.5-1.1-0.5c-0.6,0-1.3,0.5-1.3,1.5v4.9h-2v-8.2h2v0.8c0.4-0.5,1.2-0.9,2.1-0.9
	c0.8,0,1.4,0.2,1.9,0.8L481.2,25.8"/>
<path class="st1" d="M486.4,31.8c-1.3,0-2.4-0.1-3.5-1.2l1.3-1.3c0.7,0.7,1.6,0.8,2.2,0.8c0.7,0,1.4-0.2,1.4-0.8
	c0-0.4-0.2-0.7-0.9-0.8l-1.3-0.1c-1.5-0.1-2.4-0.8-2.4-2.3c0-1.7,1.5-2.6,3.2-2.6c1.3,0,2.3,0.2,3.1,1l-1.3,1.3
	c-0.5-0.4-1.2-0.5-1.9-0.5c-0.8,0-1.2,0.4-1.2,0.8c0,0.3,0.1,0.6,0.8,0.7l1.3,0.1c1.6,0.2,2.4,1,2.4,2.4
	C489.9,30.9,488.3,31.8,486.4,31.8"/>
<g>
	<defs>
		<path id="SVGID_4_" d="M371.3,16.1c-7.1,4.9-9.1,13-5,17.3c0,0,0-0.1,0-0.1c0.2-0.3,0.6-0.8,0.6-1.1c0.2,0,0.3-0.2,0.4-0.4l0.1,0
			l0-0.1c0,0,0.1,0,0.2-0.1l-0.1-0.1c0,0,0,0,0,0c0,0,0-0.1,0.1,0c0-0.3,0.1-0.4,0.1-0.6l0,0.1c0-0.3,0.3,0,0.2-0.3l0,0v0v0
			c0.1-0.3,0.4-0.6,0.6-0.8l0-0.2l-0.2,0.1l0.2-0.2v0c0.2-0.2,0.3-0.5,0.4-0.7c0.4-0.3,0.7-0.9,1.1-1.1l-0.1-0.1
			c0.1,0,0.1,0.1,0.2,0c0-0.1,0-0.2-0.1-0.2l0.1,0c-0.1-0.1,0.3-0.2,0.1-0.3c0.1,0,0.2-0.1,0.2-0.2c0,0,0,0,0,0c0,0,0.1,0,0.1,0
			c-0.1-0.1,0-0.1,0-0.2c0.1-0.1,0.2,0,0.2-0.1v0.1c0.1,0,0.1-0.1,0.1-0.2c0,0,0,0-0.1,0c0,0-0.1,0,0,0c0.1,0,0.2,0,0.2,0.1
			c0.1,0,0.1-0.2,0-0.2l-0.1,0l0.3-0.3c0,0,0,0,0,0c0,0,0,0,0,0c0-0.1,0-0.2,0-0.3l0.1,0l0,0l0,0l0,0l0,0l0-0.1c0.1,0,0.2,0,0.2-0.1
			l-0.1,0c0,0,0.2-0.1,0.1-0.2l0,0.1c0.2-0.2,0.3-0.4,0.5-0.6l0,0c0.1-0.1,0.1-0.2,0.1-0.3c0.2-0.2,0.5-0.5,0.7-0.7l0-0.1l0.1,0
			c0.2-0.2,0.5-0.3,0.7-0.5l-0.1,0c0.1,0,0-0.1,0.2-0.1c0.1-0.2,0.2-0.3,0.3-0.5c0.1,0.1,0.1,0,0.2-0.1c-0.1-0.2,0.1-0.1,0.2-0.3
			l0,0c0.1-0.1,0.1-0.1,0.1-0.2l0,0c0.1-0.1,0.1-0.1,0.2-0.2c0,0,0.1,0,0.1,0c0,0,0,0,0.1,0c0,0,0-0.2,0-0.2c-0.1,0,0.2,0,0.2-0.1
			l0,0.1l0.1-0.1l0,0c0.1-0.1,0.1-0.1,0.2-0.3l0,0c0.1-0.1,0.3-0.3,0.4-0.4l0,0l0.1-0.2l0,0.1l0.1-0.1c0,0,0,0,0,0
			c0-0.2,0.3-0.1,0.5-0.3l0,0c0.1,0,0.1-0.1,0.2-0.1c0-0.1-0.1-0.2,0-0.2l0,0.1l0.1-0.1l0,0c0,0,0,0,0.1,0c0,0,0,0,0.1,0
			c0-0.1,0-0.1,0-0.1c0,0,0,0,0,0c0,0,0.1,0,0.1-0.1c0,0,0.1-0.1,0.1-0.1l0.2-0.3l0,0.1c0-0.1,0-0.2,0.1-0.2c0,0,0,0.1,0,0.1
			c0.1,0,0.1-0.3,0.3-0.2c0.1,0,0-0.1,0-0.1c0.1,0,0.2-0.1,0.2-0.2l0,0.1c0-0.1,0.1-0.1,0.1-0.1c0,0,0,0.1,0,0.1
			c0.1-0.1,0.2-0.2,0.3-0.3l0,0l0,0c0,0,0,0,0,0c0.1,0,0.3-0.2,0.4-0.4c0,0.1-0.1,0.1,0,0.1c0.1-0.1,0-0.1,0.1-0.3
			c0,0,0,0.1,0.1,0.1l0-0.2l0.1,0.1c0.2-0.3,0.7-0.3,0.8-0.6l-0.1-0.1c0.1,0,0.1,0,0.2,0c0,0,0.1-0.1,0.2,0l0-0.1l0.1,0l0-0.1
			l0.1,0.1l0-0.1l0,0.1c0-0.2,0.2,0,0.2-0.2l0,0.1c0.1-0.2,0.2-0.1,0.3-0.2l0,0.1c0.1,0,0.1-0.1,0.1-0.1l-0.1,0l0.1,0l0-0.1l0,0
			c0.1-0.2,0.1-0.1,0.2-0.2c0,0,0,0.1,0.1,0.1c0-0.1,0.1-0.1,0.2-0.2c0,0,0,0,0,0c0,0,0-0.1,0-0.1l-0.1,0c0-0.1,0-0.1,0.1,0
			c0,0,0.1,0,0.1,0c-0.1-0.1-0.1-0.1,0-0.1l0,0.1c0,0,0.1,0,0.1,0c0,0,0.1-0.1,0.1,0c0.1,0,0.1-0.1,0.1-0.2l-0.1,0l0.3-0.2l0,0.1
			l0-0.1l0,0c0.1,0,0.1-0.1,0.2-0.1c0-0.1,0.1-0.1,0.2-0.1l-0.1-0.1l0,0c0-0.1,0.1-0.1,0.1-0.1l0,0l0,0c0.1,0.1,0.1-0.1,0.2-0.1
			c0-0.1,0-0.1,0.1-0.2c0.1,0,0.2,0,0.3,0c0-0.2,0.2-0.3,0.3-0.4c0,0,0.1,0,0,0.1c0.2,0,0.1-0.3,0.4-0.3L384,15c0,0,0.1,0,0.1,0
			c0,0,0,0.1,0.1,0l-0.1,0c0.1-0.1,0.1-0.1,0.1-0.1l0,0l0.1-0.1l-0.1,0.1c0,0,0,0,0.1,0c0,0,0,0,0,0l0.1-0.1l0,0c0,0,0.1-0.1,0-0.1
			l0.1,0l0-0.1c0,0,0.1,0,0.1,0c0,0,0,0,0.1,0l0-0.1l0,0l0-0.1c0,0.1,0,0.2,0.1,0.2c0.1-0.1,0-0.2,0.1-0.2c-0.1,0.1,0,0.1,0,0.1
			c0.1,0,0.1,0,0.1,0.1c0.1-0.2,0.2-0.2,0.3-0.4c0.1,0.2,0.2-0.1,0.3-0.2c-0.1,0-0.1,0,0,0l0.1,0.1l0.2-0.2c-0.1,0.1,0.1,0,0.1,0.1
			l0-0.2l0,0.2c0,0,0.1,0,0.1-0.1l0,0l0.1-0.1c0,0-0.1,0.2,0,0.1c0,0,0.1-0.1,0.1-0.1l0,0.1c0.1-0.1,0-0.4,0.2-0.4
			c-0.1,0.1,0,0.1,0,0.2c0-0.1,0.1,0,0.1,0c0,0,0,0,0,0l-0.1-0.2c0.1-0.1,0.1,0.1,0.2,0.1c0,0,0.1-0.1,0.1-0.1l0,0l0,0c0,0,0,0,0,0
			c0,0,0.1,0,0,0.1c0.1,0,0.1-0.1,0.1-0.2c0.3,0,0.1-0.1,0.4-0.1c0,0.1-0.1,0.3-0.2,0.2c0,0.1,0.2,0.2,0.2,0c0,0.1-0.1,0.1-0.1,0.1
			c0,0-0.1-0.2-0.2,0c-0.1,0.2,0.2,0.2,0,0.3l0,0c0,0,0.1,0,0.1-0.1c0-0.1,0,0-0.1,0c0,0,0,0-0.1,0c-0.2,0-0.1,0.2-0.2,0.3
			c-0.2,0,0-0.2-0.1-0.2l-0.1,0.1c0.1-0.1-0.1-0.1-0.1-0.1c0,0.1-0.1,0.1,0,0.2c-0.1,0.1-0.3,0.4-0.5,0.3c0,0.1,0,0.1,0,0.1
			c0,0,0,0,0,0.1c-0.1,0-0.2,0.1-0.3,0.1c0-0.1,0-0.1-0.1,0c0,0,0,0.1,0,0.2l-0.1,0c0,0,0,0.1,0,0.1l-0.1,0l0,0.1l0,0
			c-0.1,0.1,0,0.1,0.1,0.1l-0.1,0c0.1,0,0,0.2-0.1,0.2c0.1-0.1,0-0.1,0-0.2c0,0,0,0-0.1,0c0,0,0,0,0,0c-0.1,0.1,0.1,0,0.1,0.1
			l-0.1,0l0,0c0,0-0.1,0-0.2,0c0,0.1,0.1,0,0.1,0.1c0-0.1-0.2,0-0.2-0.1c0,0-0.1,0-0.1,0.1c0.1,0-0.2,0.2,0,0.3c0,0-0.1,0.2-0.1,0.2
			l0.1,0l0,0l0.1,0c-0.1,0-0.2,0-0.2-0.1c-0.1,0.1,0,0.1-0.1,0.2c0-0.1,0-0.1,0-0.1l-0.1,0l0,0l0,0l0.1,0c0-0.1,0-0.1,0.1-0.2
			c-0.1,0.1-0.2-0.1-0.2-0.2c-0.1,0-0.1,0-0.2,0.1l0,0.1l-0.1-0.1c-0.1,0-0.1,0.1-0.1,0.1c0.1,0,0.1,0.2,0.2,0.3
			c0,0-0.1-0.1-0.1-0.1l0,0l0,0l0-0.1c0,0.1-0.2,0.1-0.1,0.2l0,0c0.1,0,0,0.1,0,0.1l-0.1,0l0,0.2c-0.1,0-0.3,0.1-0.3,0.1l0,0.1
			c0,0-0.1-0.1-0.2-0.1c0.1,0.1-0.1,0.2-0.1,0.3c-0.1-0.1-0.1,0-0.1,0c0,0-0.1,0.1-0.1,0c-0.1,0.1-0.2,0.2-0.1,0.3L383,17
			c0,0.1-0.1,0.1-0.1,0.1l0,0.1c0,0,0-0.1,0-0.1c0,0-0.1,0-0.1,0c-0.1,0-0.1,0.1-0.2,0c-0.1,0.1,0,0.1,0.1,0.1c-0.1,0-0.2,0-0.2,0.1
			c0,0-0.1,0.1-0.1,0.2l0.1,0l-0.2,0c0.1,0.1-0.1,0-0.2,0.2c0,0,0,0.1,0,0l0,0l0,0l-0.1,0.1c0,0.1,0.2,0,0.2,0.1
			c-0.1,0.2-0.4,0.1-0.4,0c0,0.1,0,0.1-0.1,0.2l0.1,0c-0.2,0.1,0,0.3-0.2,0.5c0,0,0.1,0,0.1,0c0,0,0.1,0,0.1,0
			c-0.1,0.1-0.2,0.2-0.3,0.2c0-0.1-0.1-0.1-0.1-0.1c0,0-0.1,0-0.1-0.1c-0.1,0.1,0,0.1,0,0.2c0,0-0.1-0.1-0.2-0.2l-0.1,0.1
			c0,0,0.1,0,0.1,0.1c0,0-0.1,0-0.1,0.1c0,0-0.1,0-0.2,0.1c0,0,0,0.2-0.1,0.1c0,0,0-0.1,0-0.1l-0.1,0c0.1,0-0.1,0.2,0,0.2
			c0,0.1,0,0.1-0.1,0.1c0.1-0.1,0-0.1,0-0.1c-0.1,0.1-0.1,0.1-0.2,0.1c0,0.1,0,0.1,0.1,0.1l-0.1,0.1c0,0.1,0.1,0,0,0.1
			c0-0.1-0.2-0.1-0.2,0l0,0.1l0-0.1c0,0,0-0.1,0-0.1l-0.1-0.1c0,0.2,0.1,0.3-0.1,0.5c-0.1,0.1-0.2,0.1-0.2,0.2l0,0l-0.1,0.1
			c0-0.1,0.1-0.1,0-0.1c-0.1,0.1-0.1,0.1-0.2,0.2c0,0,0.1-0.1,0-0.2c-0.1,0.1-0.1,0.2-0.2,0.3l0.1,0c-0.1,0-0.2,0.2-0.2,0.2l0,0.1
			c0.2,0,0.1-0.2,0.2-0.2c0,0.1-0.1,0.2-0.2,0.2c-0.1-0.1-0.2-0.1-0.2-0.1c-0.1,0.1-0.2,0.1-0.2,0.1c0,0,0,0,0,0c0,0,0,0,0,0.1
			c-0.1,0.1-0.1,0-0.2,0c-0.1-0.1-0.1-0.1-0.1,0.1l0.1,0.1c-0.1,0-0.1,0.1-0.1,0.2c0,0-0.1,0-0.1,0c0,0,0,0.1,0,0l0,0
			c0,0,0-0.1,0-0.1c-0.1-0.1-0.2,0.1-0.3,0.1l0-0.1c-0.1,0.1,0,0.1-0.1,0.2c0,0,0,0,0,0c0,0-0.1,0-0.1,0c0,0.1,0.1,0.1,0.1,0.1
			l-0.1,0.1l0.1,0.1c0,0-0.1,0-0.1,0.1c0-0.1,0-0.2-0.1-0.3c0.1,0,0.1-0.1,0-0.1c-0.2,0.1,0,0.3-0.2,0.3c0.1,0.1,0.1,0.1,0.1,0.1
			c0,0,0,0.1,0,0.1c-0.1,0.1-0.3,0.1-0.3,0.3l0,0c-0.1,0.1-0.1,0.1-0.1,0.2l0-0.1c-0.1,0-0.1,0.1-0.1,0.1c0,0.1,0.1,0.1,0.1,0
			c0,0,0,0,0,0c0,0,0,0.2-0.1,0.1c0,0,0.1-0.1,0-0.1c-0.1,0.1-0.1,0.1-0.2,0.2l0-0.1c-0.1,0.1,0,0.1-0.1,0.2l0,0h0v0
			c0,0,0-0.1-0.1,0l0,0.1c-0.1,0.1,0,0-0.2,0c-0.1,0.1,0,0.2,0,0.3c-0.1,0-0.2,0.1-0.3,0.2c0,0.1,0,0.1-0.1,0.2c0.1,0.1,0,0.1,0,0.2
			c0.1,0,0-0.2,0.1-0.1c0,0-0.1,0.1-0.1,0.2l0,0c-0.3,0.2,0,0.5-0.3,0.7c0,0,0-0.1,0-0.1c-0.1,0.1,0,0.1-0.1,0.2l-0.3,0.3
			c0-0.1,0-0.1-0.1-0.1c0,0-0.1,0-0.1,0l0,0.1c-0.1,0-0.1,0,0,0c0,0,0,0,0,0l0,0.1l-0.1-0.1c-0.1,0.1-0.2,0.2-0.2,0.4
			c-0.3,0.3-0.6,0.8-0.9,1.2c-0.1,0.1-0.2,0-0.2,0.2l0,0c-0.1,0.1-0.2,0.3-0.4,0.3c0,0,0,0,0.1,0c0,0,0,0,0,0c-0.1,0-0.1,0-0.2,0.1
			c0.1,0,0,0.2-0.1,0.2c0-0.1,0.1-0.1,0-0.2c-0.1,0-0.1,0.1-0.1,0.2l0-0.1c-0.1,0.2-0.2,0.1-0.3,0.3c0,0,0,0,0.1,0c0,0,0,0,0.1,0
			c-0.1,0.2-0.4,0.3-0.4,0.5l0,0l-0.1,0.1l0,0l0,0c0,0-0.1,0-0.1-0.1c-0.1,0-0.1,0-0.1,0.1c0,0.1,0.2,0,0.2,0.2c0-0.1-0.1,0-0.1,0
			c0,0-0.1,0.1-0.1,0c-0.2,0.2-0.2,0.5-0.4,0.7l-0.2-0.1v0.1l0,0c-0.1,0-0.1,0.2,0,0.1c0,0,0-0.1,0.1-0.1c-0.1,0-0.1,0.2-0.2,0.2
			l0,0l0,0.1l0.1,0.1c-0.2,0.3-0.4,0.6-0.6,0.8c-0.1,0.1-0.2,0.3-0.3,0.3c-0.1,0.1-0.2,0.4-0.3,0.5c-0.1,0-0.1,0.3-0.3,0.2l0,0.1
			l0,0c0,0.1-0.1,0-0.1,0.1l0.1,0.1c-0.1,0-0.1,0.2-0.2,0.4l0,0c0,0.1,0,0.1-0.1,0.1l-0.1,0c0,0.5-0.5,0.7-0.6,1.1
			c-0.3,0.1-0.1,0.4-0.5,0.5c-0.1,0.1,0,0.2,0.1,0.1c-0.2,0.3-0.5,0.7-0.7,1.1c5.4,3.4,13.4,2,16.4-8.2c4-13.8,13-18.1,13-18.1
			S379.1,10.6,371.3,16.1 M384.8,15.8c0,0,0.1-0.1,0.1-0.1C384.9,15.7,384.8,15.7,384.8,15.8L384.8,15.8L384.8,15.8L384.8,15.8z
			 M384.1,16.1L384.1,16.1L384.1,16.1L384.1,16.1z M384,16.4L384,16.4L384,16.4L384,16.4z M379.6,20.3L379.6,20.3L379.6,20.3
			L379.6,20.3z M379.6,20.3L379.6,20.3L379.6,20.3L379.6,20.3z M378,21.8c0,0,0-0.1,0-0.1C378,21.7,378,21.7,378,21.8z M377.7,22
			L377.7,22C377.7,22,377.7,22,377.7,22 M377,22.9C377,22.9,377.1,22.9,377,22.9L377,22.9z M386.5,14C386.4,14,386.4,14,386.5,14
			C386.4,14,386.4,14,386.5,14 M385.6,14C385.6,14,385.6,14,385.6,14C385.6,14,385.6,14,385.6,14 M377.7,22"/>
	</defs>
	<clipPath id="SVGID_5_">
		<use xlink:href="#SVGID_4_"  style="overflow:visible;"/>
	</clipPath>
	<rect x="362.2" y="8.5" class="st2" width="35.2" height="29.7"/>
</g>
<g>
	<defs>
		<rect id="SVGID_6_" x="302.3" y="-47.7" width="249.4" height="164.4"/>
	</defs>
	<clipPath id="SVGID_7_">
		<use xlink:href="#SVGID_6_"  style="overflow:visible;"/>
	</clipPath>
	<path class="st3" d="M302.4-47.6c0,54.7,0,109.4,0,164.2c83.1,0,166.1,0,249.2,0c0-54.7,0-109.4,0-164.2
		C468.5-47.6,385.5-47.6,302.4-47.6z"/>
</g>
<g>
	<defs>
		<rect id="SVGID_8_" x="-523.7" y="-1481.5" width="231.9" height="15.3"/>
	</defs>
	<clipPath id="SVGID_9_">
		<use xlink:href="#SVGID_8_"  style="overflow:visible;"/>
	</clipPath>
	<g class="st4">
		<defs>
			<rect id="SVGID_10_" x="-725.7" y="-1572.6" width="1800" height="3269"/>
		</defs>
		<clipPath id="SVGID_11_">
			<use xlink:href="#SVGID_10_"  style="overflow:visible;"/>
		</clipPath>
		<g class="st5">
			<g>
				<defs>
					<rect id="SVGID_12_" x="-522.7" y="-1478.5" width="231" height="12"/>
				</defs>
				<clipPath id="SVGID_13_">
					<use xlink:href="#SVGID_12_"  style="overflow:visible;"/>
				</clipPath>
				<g class="st6">
					<defs>
						<rect id="SVGID_14_" x="-522.7" y="-1478.5" width="231" height="12"/>
					</defs>
					<clipPath id="SVGID_15_">
						<use xlink:href="#SVGID_14_"  style="overflow:visible;"/>
					</clipPath>
					<g class="st7">
						
							<text transform="matrix(1 0 0 1 -523.707 -1469.4695)" class="st8" style="font-family:'OpenSans-Semibold'; font-size:11.2281px;">Keeping Motorists on the Road Nationwide</text>
					</g>
				</g>
			</g>
		</g>
	</g>
</g>
<g>
	<g>
		<path class="st8" d="M54.1,25.9c-0.6-0.8-1.5-1.1-2.7-1.1h-2.7v12.1h2.7c1.2,0,2.1-0.4,2.7-1.1c0.7-0.8,0.8-2.2,0.8-5
			C54.9,27.9,54.8,26.7,54.1,25.9 M56.6,38.2c-1.2,1.2-3,1.8-4.9,1.8h-6.7V21.5h6.7c1.9,0,3.7,0.5,4.9,1.8c2.1,2.1,1.9,4.6,1.9,7.4
			C58.5,33.5,58.7,36.2,56.6,38.2"/>
		<polyline class="st8" points="65.8,24.7 65.8,29.3 73.1,29.3 73.1,32.5 65.8,32.5 65.8,40 62.2,40 62.2,21.5 74.4,21.5 74.4,24.7 
			65.8,24.7 		"/>
		<path class="st8" d="M84.6,24.7h-3.4v4.9h3.4c1.6,0,2.6-1,2.6-2.4C87.2,25.7,86.1,24.7,84.6,24.7 M87.4,40l-3.6-7.4h-2.6V40h-3.6
			V21.5h7.3c3.8,0,6,2.6,6,5.7c0,2.6-1.6,4.2-3.4,4.9l4.1,8H87.4z"/>
		<path class="st8" d="M105.7,40.2c-2.8,0-4.9-0.6-6.8-2.4l2.3-2.3c1.2,1.2,2.8,1.6,4.5,1.6c2.1,0,3.3-0.8,3.3-2.3
			c0-0.6-0.2-1.2-0.6-1.6c-0.4-0.3-0.8-0.5-1.6-0.7l-2.2-0.3c-1.6-0.2-2.8-0.7-3.6-1.5c-0.9-0.9-1.3-2.1-1.3-3.6
			c0-3.3,2.4-5.6,6.4-5.6c2.6,0,4.4,0.6,6,2.2l-2.3,2.3c-1.2-1.1-2.6-1.3-3.8-1.3c-1.9,0-2.9,1.1-2.9,2.3c0,0.5,0.2,1,0.5,1.3
			c0.4,0.3,1,0.6,1.7,0.7l2.2,0.3c1.7,0.2,2.8,0.7,3.5,1.4c1,0.9,1.4,2.3,1.4,3.9C112.5,38.1,109.6,40.2,105.7,40.2"/>
		<path class="st8" d="M122.4,30c-0.4-0.4-0.9-0.6-1.6-0.6c-0.7,0-1.2,0.2-1.6,0.6c-0.7,0.7-0.8,1.9-0.8,3.3c0,1.4,0.1,2.6,0.8,3.3
			c0.4,0.4,0.9,0.6,1.6,0.6c0.7,0,1.2-0.2,1.6-0.6c0.7-0.7,0.8-1.9,0.8-3.3C123.2,31.8,123.1,30.7,122.4,30 M125.1,38.5
			c-0.8,0.9-2.2,1.7-4.2,1.7c-2,0-3.4-0.8-4.2-1.7c-1.2-1.3-1.5-2.8-1.5-5.3c0-2.4,0.3-4,1.5-5.3c0.8-0.9,2.2-1.7,4.2-1.7
			c2,0,3.4,0.8,4.2,1.7c1.2,1.3,1.5,2.8,1.5,5.3C126.6,35.7,126.3,37.2,125.1,38.5"/>
		<path class="st8" d="M133.6,40c-2.8,0-4-1.9-4-3.9V21.5h3.4v14.4c0,0.8,0.3,1.2,1.2,1.2h1.3V40H133.6"/>
		<path class="st8" d="M138.3,26.5h3.4V40h-3.4V26.5z M138.2,21.4h3.5v2.8h-3.5V21.4z"/>
		<path class="st8" d="M150.8,40.2c-2.7,0-6.1-1.5-6.1-6.9c0-5.5,3.4-6.9,6.1-6.9c1.9,0,3.3,0.6,4.5,1.8l-2.3,2.3
			c-0.7-0.8-1.3-1.1-2.2-1.1c-0.8,0-1.4,0.3-1.9,0.9c-0.5,0.7-0.8,1.6-0.8,3c0,1.4,0.2,2.4,0.8,3c0.5,0.6,1.1,0.9,1.9,0.9
			c0.9,0,1.5-0.3,2.2-1.1l2.3,2.3C154.1,39.6,152.7,40.2,150.8,40.2"/>
		<path class="st8" d="M157.9,26.5h3.4V40h-3.4V26.5z M157.9,21.4h3.5v2.8h-3.5V21.4z"/>
		<path class="st8" d="M169.3,40c-2.8,0-3.9-1.9-3.9-3.9v-6.7H164v-2.6h1.4v-4h3.4v4h2.4v2.6h-2.4v6.5c0,0.8,0.4,1.2,1.2,1.2h1.2V40
			H169.3"/>
		<path class="st8" d="M180.9,30c-0.4-0.4-0.9-0.6-1.6-0.6c-0.7,0-1.2,0.2-1.6,0.6c-0.7,0.7-0.8,1.9-0.8,3.3c0,1.4,0.1,2.6,0.8,3.3
			c0.4,0.4,0.9,0.6,1.6,0.6c0.7,0,1.2-0.2,1.6-0.6c0.7-0.7,0.8-1.9,0.8-3.3C181.7,31.8,181.6,30.7,180.9,30 M183.5,38.5
			c-0.8,0.9-2.2,1.7-4.2,1.7c-2,0-3.4-0.8-4.2-1.7c-1.2-1.3-1.5-2.8-1.5-5.3c0-2.4,0.3-4,1.5-5.3c0.8-0.9,2.2-1.7,4.2-1.7
			c2,0,3.4,0.8,4.2,1.7c1.2,1.3,1.5,2.8,1.5,5.3C185,35.7,184.7,37.2,183.5,38.5"/>
		<path class="st8" d="M195.6,30.2c-0.5-0.5-1-0.8-1.8-0.8c-1,0-2.2,0.8-2.2,2.5V40h-3.4V26.5h3.3v1.3c0.6-0.8,1.9-1.5,3.4-1.5
			c1.3,0,2.3,0.3,3.2,1.3L195.6,30.2"/>
		<path class="st8" d="M204.3,40.2c-2.1,0-4.1-0.2-5.8-2l2.2-2.2c1.1,1.1,2.6,1.3,3.6,1.3c1.2,0,2.4-0.4,2.4-1.4
			c0-0.7-0.4-1.1-1.4-1.2l-2.1-0.2c-2.4-0.2-4-1.3-4-3.8c0-2.8,2.5-4.3,5.2-4.3c2.1,0,3.9,0.4,5.2,1.6l-2.1,2.1
			c-0.8-0.7-2-0.9-3.1-0.9c-1.4,0-1.9,0.6-1.9,1.3c0,0.5,0.2,1.1,1.4,1.2l2.1,0.2c2.7,0.3,4,1.7,4,4C210,38.7,207.5,40.2,204.3,40.2
			"/>
		<g>
			<defs>
				<rect id="SVGID_16_" x="0" width="57.4" height="48.9"/>
			</defs>
			<clipPath id="SVGID_17_">
				<use xlink:href="#SVGID_16_"  style="overflow:visible;"/>
			</clipPath>
			<g class="st9">
				<defs>
					<path id="SVGID_18_" d="M13.2,14c-11.8,8.2-15,21.5-8.3,28.7c0-0.1,0-0.1,0-0.2c0.4-0.6,0.9-1.3,1.1-1.9c0.3,0,0.5-0.4,0.6-0.6
						l0.1,0.1l0-0.2c0.1,0.1,0.2-0.1,0.3-0.1l-0.1-0.1c0.1,0.1,0.1,0,0.1-0.1c0-0.1,0-0.1,0.2,0c0.1-0.4,0.1-0.6,0.2-1l0,0.1
						c0-0.4,0.4,0,0.4-0.5v0v0c0.2-0.5,0.7-1,1.1-1.3l0.1-0.3l-0.3,0.2l0.3-0.3v0.1c0.3-0.3,0.4-0.8,0.6-1.1
						c0.7-0.5,1.1-1.4,1.8-1.8l-0.2-0.2c0.1,0,0.2,0.1,0.3,0.1c0.1-0.1-0.1-0.3-0.1-0.3l0.2,0c-0.2-0.2,0.4-0.3,0.2-0.6
						c0.1,0,0.4-0.1,0.3-0.3c0,0,0,0,0.1,0c0,0,0.1,0.1,0.2,0c-0.2-0.1-0.1-0.1,0-0.3c0.1-0.1,0.3,0,0.4-0.2l0,0.1
						c0.1,0,0.2-0.2,0.2-0.4c0,0,0,0-0.1,0c0,0-0.1,0-0.1-0.1c0.1,0,0.3,0,0.2,0.1c0.1,0,0.2-0.3,0.1-0.3l-0.1,0l0.5-0.5
						c0,0.1,0,0.1,0.1,0.1c0,0,0.1,0,0.1,0c-0.1-0.2,0.1-0.4,0.1-0.4l0.2,0l0-0.1l0,0l0,0l0.1,0l0-0.2c0.1,0,0.3,0,0.3-0.2l-0.1,0
						c0.1-0.1,0.3-0.1,0.2-0.3l0.1,0.1c0.3-0.3,0.6-0.6,0.8-1l0,0c0.2-0.1,0.2-0.4,0.2-0.6c0.3-0.3,0.8-0.8,1.2-1.2l0-0.2l0.1,0.1
						c0.3-0.4,0.9-0.6,1.2-0.9L17.7,26c0.2,0,0.1-0.2,0.3-0.1c0.2-0.3,0.3-0.5,0.5-0.8c0.1,0.1,0.2-0.1,0.3-0.1
						c-0.1-0.4,0.2-0.2,0.3-0.5l0,0.1c0.1-0.1,0.1-0.2,0.2-0.3l0.1,0.1c0.2-0.1,0.1-0.2,0.3-0.4c0.1,0,0.1,0,0.1,0
						c0,0,0.1,0.1,0.2-0.1c0-0.1,0-0.3,0-0.4c-0.2,0,0.3,0,0.3-0.2l0,0.1l0.2-0.2l0,0c0.1-0.2,0.2-0.1,0.4-0.4l0,0.1
						c0.2-0.2,0.4-0.5,0.6-0.7l0,0.1l0.1-0.4l0,0.1l0.2-0.2c0,0,0,0.1,0,0.1c0-0.4,0.5-0.2,0.8-0.5l0,0.1c0.1,0.1,0.2-0.1,0.4-0.1
						c-0.1-0.1-0.1-0.3,0-0.4l0,0.2l0.1-0.1l0,0c0.1,0.1,0.1,0,0.1,0c0,0,0.1-0.1,0.1,0c0.1-0.1,0-0.1,0-0.1c0,0-0.1,0,0-0.1
						c0,0.1,0.1,0,0.2-0.1c0.1-0.1,0.1-0.2,0.2-0.1l0.3-0.4l0,0.1c0-0.1,0-0.3,0.1-0.3c0,0-0.1,0.1-0.1,0.1c0.2-0.1,0.2-0.5,0.4-0.4
						c0.1-0.1,0-0.2,0-0.2c0.1,0.1,0.3-0.2,0.4-0.3l0,0.1c0-0.1,0.1-0.1,0.2-0.2c0,0-0.1,0.1,0,0.1c0.1-0.1,0.4-0.3,0.5-0.4l0,0l0,0
						c0,0,0,0,0,0c0.2-0.1,0.4-0.4,0.6-0.6c0,0.1-0.2,0.2,0,0.2c0.2-0.2,0-0.2,0.1-0.5c0.1,0-0.1,0.2,0.1,0.2l0.1-0.3l0.1,0.1
						c0.3-0.5,1.2-0.5,1.3-1.1l-0.2-0.1c0.1,0,0.2,0,0.3-0.1c0.1-0.1,0.2-0.1,0.3,0l0-0.1l0.2,0.1l-0.1-0.2l0.1,0.1l0-0.1l0.1,0.1
						c0.1-0.3,0.3,0,0.4-0.3l0,0.1c0.1-0.3,0.3-0.2,0.5-0.4l0,0.1c0.1,0,0.1-0.1,0.2-0.2l-0.1,0l0.2,0l0-0.1l0,0.1
						c0.2-0.3,0.1-0.1,0.3-0.4c0,0.1,0,0.2,0.1,0.1c0-0.1,0.2-0.2,0.3-0.3c0,0,0,0,0.1,0.1c0.1-0.1,0.1-0.2,0-0.2L30.5,15
						c0-0.1,0.1-0.1,0.1-0.1c0.1,0,0.1,0,0.2,0c-0.1-0.1-0.1-0.1,0-0.2l-0.1,0.1c0,0,0.1,0,0.2,0c0.1-0.1,0.1-0.1,0.1,0
						c0.1,0,0.1-0.2,0.2-0.2l-0.1,0l0.4-0.3l0.1,0.2l0.1-0.1l0,0.1c0.2,0,0.2-0.1,0.3-0.2c0.1-0.1,0.1-0.2,0.3-0.2l-0.1-0.1l0,0
						c0-0.1,0.2-0.1,0.1-0.2l0-0.1l0,0.1c0.1,0.1,0.2-0.2,0.4-0.2c0-0.1,0-0.1,0.1-0.3c0.2-0.1,0.3,0,0.5,0.1
						c0.1-0.3,0.3-0.4,0.5-0.6c0,0,0.1,0.1,0,0.2c0.3,0,0.2-0.4,0.6-0.5l-0.1-0.1c0.1-0.1,0.1,0,0.1,0c0,0.1,0.1,0.1,0.1,0l-0.1-0.1
						c0.1-0.2,0.1-0.2,0.2-0.2l0,0l0.2-0.1L34.8,12c0,0.1,0.1,0.1,0.1,0c0,0,0.1,0,0.1,0l0.1-0.1l0,0c0.1-0.1,0.1-0.2,0-0.2l0.1,0
						l-0.1-0.2c0.1,0,0.1,0,0.1,0c0,0,0.1,0,0.1,0l0-0.2l0,0l0.1-0.2c-0.1,0.1,0,0.3,0.2,0.3c0.1-0.1,0-0.3,0.2-0.3
						c-0.1,0.1,0,0.1,0.1,0.1c0.1,0,0.2,0,0.1,0.1c0.2-0.3,0.3-0.3,0.5-0.6c0.2,0.3,0.3-0.2,0.4-0.3c-0.1,0-0.1,0-0.1-0.1l0.1,0.1
						l0.3-0.3c-0.1,0.2,0.1,0.1,0.2,0.2l0.1-0.3l0,0.3c0.1,0,0.1,0,0.1-0.1l0,0l0.2-0.2c0.1,0-0.1,0.3,0.1,0.2
						c0-0.1,0.1-0.1,0.1-0.2l0,0.1c0.1-0.2,0-0.6,0.4-0.6c-0.2,0.2,0,0.2,0,0.3c0.1-0.1,0.1-0.1,0.1,0c0,0,0,0,0.1,0L38.6,10
						c0.2-0.1,0.2,0.2,0.3,0.2c0-0.1,0.2-0.1,0.1-0.2l0,0l0,0c0,0,0,0,0,0c0.1,0,0.1,0,0.1,0.1c0.2-0.1,0.1-0.2,0.1-0.3
						c0.4,0,0.2-0.1,0.7-0.2c0,0.1-0.1,0.5-0.3,0.4c0,0.1,0.3,0.3,0.3,0.1c0,0.1-0.1,0.2-0.2,0.2c-0.1-0.1-0.1-0.3-0.3-0.1
						c-0.1,0.3,0.3,0.3,0,0.5l-0.1,0c0-0.1,0.1-0.1,0.1-0.2c0-0.1-0.1-0.1-0.1,0c0,0-0.1,0.1-0.1,0c-0.2,0.1-0.2,0.4-0.3,0.5
						c-0.3-0.1,0.1-0.3-0.1-0.3l-0.1,0.1c0.2-0.2-0.1-0.1-0.2-0.2c0.1,0.2-0.2,0.1,0,0.3c-0.2,0.2-0.5,0.7-0.8,0.6
						c0,0.1,0,0.1,0.1,0.1c0,0,0,0,0,0.1c-0.1,0-0.3,0.2-0.5,0.2c0-0.1-0.1-0.1-0.2,0c0,0.1,0.1,0.1-0.1,0.3L36.8,12
						c-0.1,0-0.1,0.1,0,0.1l-0.1,0l-0.1,0.2l0,0c-0.2,0.2,0.1,0.2,0.2,0.2l-0.1,0.1c0.2,0,0,0.3-0.1,0.4c0.1-0.1-0.1-0.2-0.1-0.4
						c0,0-0.1,0-0.1,0c0,0-0.1,0-0.1,0c-0.1,0.1,0.1,0.1,0.1,0.2l-0.2,0l0-0.1c-0.1,0-0.2,0-0.3,0c0,0.1,0.2,0,0.2,0.1
						c-0.1-0.1-0.4,0-0.3-0.2c-0.1-0.1-0.2,0-0.2,0.1c0.2,0.1-0.3,0.4,0,0.5c-0.1,0-0.1,0.3-0.1,0.3l0.1,0l0,0.1l0.2,0
						c-0.2,0.1-0.3,0.1-0.4-0.1c-0.2,0.2,0,0.1-0.1,0.3c0-0.1,0-0.1-0.1-0.1l-0.1,0.1l0,0l0,0l0.1-0.1c0-0.1,0-0.2,0.1-0.3
						c-0.2,0.2-0.4-0.2-0.3-0.3c-0.1,0.1-0.2,0-0.3,0.1l0.1,0.2l-0.2-0.1c-0.1,0-0.2,0.2-0.1,0.2c0.2-0.1,0.2,0.4,0.3,0.5
						c-0.1,0-0.1-0.1-0.2-0.1L34.6,14l0.1-0.1l-0.1-0.1c-0.1,0.2-0.3,0.1-0.1,0.3l-0.1,0c0.1,0,0,0.1,0,0.2l-0.1,0l0,0.3
						c-0.2,0.1-0.4,0.2-0.6,0.2l0,0.1c-0.1,0-0.2-0.2-0.3-0.1c0.1,0.2-0.2,0.3-0.1,0.5c-0.1-0.1-0.2,0-0.2,0c-0.1,0.1-0.1,0.1-0.2,0
						c-0.1,0.2-0.3,0.3-0.2,0.5l-0.1-0.2c0.1,0.1-0.1,0.1-0.1,0.2l0,0.1c-0.1-0.1-0.1-0.1,0-0.1c0-0.1-0.1,0-0.2,0
						c-0.1,0.1-0.2,0.1-0.3,0c-0.1,0.1,0.1,0.2,0.1,0.2c-0.2,0-0.3,0-0.4,0.2c0,0.1-0.2,0.2-0.1,0.3l0.1,0l-0.3-0.1
						c0.1,0.2-0.2,0.1-0.3,0.3c0,0.1,0,0.1,0,0l0,0l0-0.1l-0.2,0.2c0.1,0.2,0.3,0.1,0.3,0.2c-0.2,0.3-0.6,0.2-0.7,0
						c0,0.2,0,0.1-0.1,0.3l0.1,0c-0.3,0.2,0,0.5-0.3,0.8c0,0.1,0.1,0,0.1,0c0.1,0,0.1,0,0.1,0.1c-0.1,0.1-0.3,0.3-0.5,0.3
						c0-0.1-0.1-0.1-0.2-0.1c-0.1,0-0.1,0-0.1-0.1c-0.1,0.1,0,0.2,0,0.3c0-0.1-0.2-0.2-0.3-0.3l-0.2,0.2c0,0.1,0.1,0.1,0.1,0.1
						c-0.1,0-0.2,0-0.2,0.1c-0.1,0-0.2,0.1-0.3,0.1c0,0.1,0,0.3-0.1,0.2c0.1,0,0-0.1,0-0.1l-0.2,0c0.2,0-0.2,0.4,0.1,0.3
						c0,0.1-0.1,0.2-0.2,0.2c0.1-0.1,0-0.1-0.1-0.2c-0.1,0.1-0.2,0.1-0.3,0.2c-0.1,0.2,0,0.1,0.1,0.2L28,20.1
						c-0.1,0.1,0.2,0,0.1,0.2c0-0.1-0.3-0.2-0.4-0.1l0,0.1l0-0.1c0-0.1-0.1-0.1,0.1-0.1L27.6,20c-0.1,0.3,0.1,0.6-0.2,0.8
						c-0.1,0.2-0.4,0.1-0.3,0.3l0,0l-0.2,0.2c-0.1-0.1,0.2-0.1,0.1-0.2c-0.2,0.1-0.2,0.2-0.4,0.2c0.1-0.1,0.2-0.2,0.1-0.3
						c-0.2,0.1-0.2,0.3-0.3,0.5l0.1,0.1c-0.1,0-0.3,0.3-0.4,0.4l0.1,0.2c0.3,0,0.1-0.3,0.4-0.3c0.1,0.2-0.2,0.3-0.3,0.4
						c-0.1-0.1-0.3-0.1-0.4-0.1c-0.1,0.2-0.3,0.1-0.4,0.2c0,0.1,0,0.1,0.1,0.1c0,0,0.1,0,0,0.1c-0.1,0.1-0.2,0-0.3,0
						c-0.1-0.1-0.2-0.2-0.1,0.1l0.1,0.1C25.2,22.8,25,22.9,25,23c0,0-0.1,0-0.1,0c0,0-0.1,0.1-0.1,0l0,0c0.1,0,0-0.1,0-0.1
						c-0.2-0.1-0.3,0.1-0.5,0.2l0-0.1c-0.2,0.1,0,0.1-0.1,0.3c0,0,0,0,0,0c0,0-0.1-0.1-0.1,0c-0.1,0.2,0.1,0.1,0.2,0.2l-0.1,0.1
						l0.1,0.2c0-0.1-0.1,0.1-0.2,0.2c0.1-0.2-0.1-0.3-0.1-0.6c0.1,0,0.1-0.1,0.1-0.2c-0.3,0.1-0.1,0.5-0.3,0.5
						c0.1,0.1,0.1,0.1,0.2,0.1c0,0,0,0.1,0,0.2c-0.2,0.2-0.4,0.2-0.4,0.4l0-0.1c-0.2,0.2-0.1,0.1-0.2,0.4l0-0.2
						c-0.2-0.1-0.1,0.2-0.2,0.2c0,0.1,0.1,0.1,0.1,0.1c0,0,0.1,0,0.1,0c-0.1,0,0.1,0.3-0.1,0.2c0.1,0,0.1-0.1,0.1-0.1
						c-0.2,0.2-0.2,0.2-0.3,0.3l0-0.2c-0.2,0.1-0.1,0.2-0.2,0.3v0v0c0,0-0.1-0.1-0.2,0l0.1,0.1c-0.2,0.1,0,0-0.3-0.1
						c-0.1,0.2,0,0.4-0.1,0.5c-0.2,0-0.3,0.2-0.6,0.3c-0.1,0.1,0,0.2-0.2,0.3c0.1,0.1-0.1,0.2,0.1,0.3c0.2,0,0-0.3,0.2-0.2
						c0,0-0.1,0.1-0.1,0.3l0-0.1c-0.5,0.3,0,0.9-0.5,1.1c-0.1-0.1,0-0.1-0.1-0.1c-0.2,0.1,0,0.2-0.1,0.3l-0.5,0.6
						c0.1-0.2,0-0.2-0.2-0.1c-0.1,0-0.1,0.1-0.2,0.1l0.1,0.2c-0.1,0-0.1,0-0.1-0.1c0,0,0-0.1,0-0.1L20,29l-0.2-0.2
						c-0.1,0.2-0.3,0.4-0.3,0.6c-0.6,0.5-1.1,1.4-1.5,2c-0.2,0.2-0.4,0-0.4,0.3l-0.1-0.1c-0.2,0.2-0.4,0.4-0.6,0.5
						c0,0.1,0.1,0.1,0.1,0.1c0,0,0.1,0,0.1,0c-0.1,0-0.2,0-0.3,0.1c0.2,0,0,0.3-0.1,0.4c0-0.1,0.2-0.2,0-0.3
						c-0.2,0.1-0.2,0.2-0.2,0.3l-0.1-0.1c-0.1,0.4-0.4,0.1-0.5,0.5c0,0,0.1,0,0.1,0c0,0,0.1,0,0.1,0c-0.1,0.4-0.6,0.4-0.7,0.9l0-0.1
						l-0.1,0.2l0,0l0,0c0-0.1-0.1,0-0.1-0.1c-0.1,0-0.1,0.1-0.1,0.1c0.1,0.2,0.4,0,0.2,0.3c-0.1-0.1-0.1-0.1-0.2,0
						c0,0.1-0.1,0.1-0.1,0.1c-0.4,0.4-0.4,0.8-0.7,1.2L14,35.7l0,0.1l0,0c-0.2,0.1-0.1,0.3,0,0.2c0.1-0.1,0-0.2,0.1-0.1
						c-0.2,0-0.1,0.4-0.3,0.3l-0.1,0l-0.1,0.1l0.1,0.1c-0.4,0.4-0.7,1-1,1.4c-0.2,0.2-0.4,0.5-0.5,0.4c-0.2,0.2-0.3,0.6-0.4,0.8
						c-0.2,0-0.2,0.5-0.4,0.4l0,0.2l-0.1,0c0,0.2-0.1,0-0.2,0.2l0.1,0.1c-0.1,0.1-0.2,0.4-0.4,0.6l0,0c-0.1,0.1,0,0.2-0.1,0.2
						l-0.1-0.1c-0.1,0.8-0.8,1.1-1.1,1.8c-0.5,0.2-0.2,0.7-0.8,0.8c-0.1,0.1,0.1,0.3,0.2,0.1c-0.4,0.6-0.7,1.2-1.1,1.8
						c9,5.7,22.3,3.3,27.2-13.7c6.6-22.9,21.5-30,21.5-30S26.2,5,13.2,14 M35.7,13.6c-0.1-0.1,0.1-0.1,0.2-0.2
						C35.9,13.5,35.8,13.5,35.7,13.6L35.7,13.6L35.7,13.6L35.7,13.6z M34.5,14.2L34.5,14.2L34.5,14.2L34.5,14.2z M34.3,14.6
						L34.3,14.6L34.3,14.6L34.3,14.6z M27.1,21.1L27.1,21.1l0,0.1L27.1,21.1z M27.1,21.1L27.1,21.1L27.1,21.1L27.1,21.1z M24.3,23.5
						c0-0.1,0-0.2,0.1-0.2C24.4,23.4,24.4,23.5,24.3,23.5z M23.9,24L23.9,24C23.9,24,23.9,24,23.9,24 M22.7,25.4
						c0.1,0,0.1,0,0.1,0.1L22.7,25.4z M38.4,10.6C38.4,10.6,38.4,10.6,38.4,10.6C38.4,10.6,38.4,10.6,38.4,10.6 M37,10.7
						C37,10.7,37,10.7,37,10.7C37,10.7,37,10.7,37,10.7 M23.9,24L23.9,24C23.9,24,23.9,24,23.9,24"/>
				</defs>
				<clipPath id="SVGID_19_">
					<use xlink:href="#SVGID_18_"  style="overflow:visible;"/>
				</clipPath>
				
					<radialGradient id="SVGID_20_" cx="-27.3438" cy="113.123" r="2.1267" gradientTransform="matrix(11.986 0 0 -11.986 356.7196 1380.554)" gradientUnits="userSpaceOnUse">
					<stop  offset="0" style="stop-color:#009FE3"/>
					<stop  offset="0.1064" style="stop-color:#009DE2"/>
					<stop  offset="0.2296" style="stop-color:#0098DD"/>
					<stop  offset="0.361" style="stop-color:#008FD5"/>
					<stop  offset="0.4982" style="stop-color:#0081C9"/>
					<stop  offset="0.6399" style="stop-color:#006FB9"/>
					<stop  offset="0.7835" style="stop-color:#0055A4"/>
					<stop  offset="0.8132" style="stop-color:#004F9F"/>
					<stop  offset="1" style="stop-color:#004F9F"/>
				</radialGradient>
				<rect x="-1.8" y="1.4" class="st10" width="58.4" height="49.3"/>
			</g>
		</g>
	</g>
	<g>
		<path class="st8" d="M1,59.4h1.3v3.4h0L5,59.4h1.5l-2.3,2.9l2.7,4.6H5.4l-2-3.5l-1.1,1.3v2.2H1V59.4z"/>
		<path class="st8" d="M7.2,64.1c0-0.5,0.1-0.9,0.2-1.2c0.1-0.4,0.3-0.7,0.6-0.9c0.2-0.3,0.5-0.4,0.8-0.6c0.3-0.1,0.6-0.2,1-0.2
			c0.4,0,0.7,0.1,1,0.2c0.3,0.1,0.5,0.3,0.7,0.6c0.2,0.2,0.3,0.5,0.4,0.9s0.1,0.7,0.1,1.1c0,0.3,0,0.5-0.1,0.6H8.5
			c0.1,0.5,0.2,0.9,0.5,1.2S9.7,66,10.2,66c0.2,0,0.5,0,0.7-0.1c0.2-0.1,0.4-0.2,0.6-0.3l0.4,0.8c-0.3,0.2-0.6,0.3-0.9,0.4
			C10.7,67,10.4,67,10,67c-0.4,0-0.8-0.1-1.1-0.2c-0.3-0.1-0.6-0.3-0.9-0.6c-0.3-0.3-0.5-0.6-0.6-0.9S7.2,64.5,7.2,64.1z M11,63.6
			c0-0.5-0.1-0.8-0.3-1.1c-0.2-0.3-0.5-0.4-0.9-0.4c-0.3,0-0.6,0.1-0.9,0.4c-0.3,0.2-0.4,0.6-0.5,1.1H11z"/>
		<path class="st8" d="M13,64.1c0-0.5,0.1-0.9,0.2-1.2c0.1-0.4,0.3-0.7,0.6-0.9c0.2-0.3,0.5-0.4,0.8-0.6c0.3-0.1,0.6-0.2,1-0.2
			c0.4,0,0.7,0.1,1,0.2c0.3,0.1,0.5,0.3,0.7,0.6c0.2,0.2,0.3,0.5,0.4,0.9s0.1,0.7,0.1,1.1c0,0.3,0,0.5-0.1,0.6h-3.6
			c0.1,0.5,0.2,0.9,0.5,1.2S15.5,66,16,66c0.2,0,0.5,0,0.7-0.1c0.2-0.1,0.4-0.2,0.6-0.3l0.4,0.8c-0.3,0.2-0.6,0.3-0.9,0.4
			c-0.3,0.1-0.7,0.2-1,0.2c-0.4,0-0.8-0.1-1.1-0.2c-0.3-0.1-0.6-0.3-0.9-0.6c-0.3-0.3-0.5-0.6-0.6-0.9S13,64.5,13,64.1z M16.8,63.6
			c0-0.5-0.1-0.8-0.3-1.1c-0.2-0.3-0.5-0.4-0.9-0.4c-0.3,0-0.6,0.1-0.9,0.4c-0.3,0.2-0.4,0.6-0.5,1.1H16.8z"/>
		<path class="st8" d="M20.6,67.3v1.8h-1.3v-7.9h1.1l0.1,0.6h0c0.2-0.2,0.5-0.4,0.8-0.5c0.3-0.1,0.6-0.2,0.9-0.2
			c0.4,0,0.7,0.1,0.9,0.2c0.3,0.1,0.5,0.3,0.7,0.6c0.2,0.3,0.3,0.6,0.4,0.9c0.1,0.4,0.1,0.7,0.1,1.2c0,0.5-0.1,0.9-0.2,1.3
			s-0.3,0.7-0.5,1c-0.2,0.3-0.5,0.5-0.8,0.6C22.6,66.9,22.3,67,22,67c-0.2,0-0.5-0.1-0.7-0.2s-0.5-0.3-0.7-0.5L20.6,67.3z
			 M20.6,65.5c0.2,0.2,0.4,0.3,0.6,0.4c0.2,0.1,0.4,0.1,0.5,0.1c0.4,0,0.7-0.2,0.9-0.5c0.3-0.3,0.4-0.8,0.4-1.5c0-0.6-0.1-1-0.3-1.3
			c-0.2-0.3-0.5-0.5-0.9-0.5c-0.4,0-0.8,0.2-1.2,0.6V65.5z"/>
		<path class="st8" d="M26.4,60.2c-0.2,0-0.4-0.1-0.6-0.2c-0.2-0.1-0.2-0.3-0.2-0.5s0.1-0.4,0.2-0.5c0.2-0.1,0.3-0.2,0.6-0.2
			c0.2,0,0.4,0.1,0.6,0.2c0.2,0.1,0.2,0.3,0.2,0.5S27.2,59.9,27,60C26.8,60.2,26.6,60.2,26.4,60.2z M25.7,61.2h1.3v5.7h-1.3V61.2z"
			/>
		<path class="st8" d="M28.8,61.2h1.1l0.1,0.8h0c0.3-0.2,0.5-0.5,0.8-0.6s0.6-0.3,1-0.3c0.6,0,1,0.2,1.3,0.6
			c0.3,0.4,0.4,0.9,0.4,1.7v3.5h-1.3v-3.4c0-0.5-0.1-0.8-0.2-1s-0.4-0.3-0.7-0.3c-0.2,0-0.5,0.1-0.7,0.2s-0.4,0.3-0.6,0.5v3.9h-1.3
			V61.2z"/>
		<path class="st8" d="M34.8,67.9c0-0.2,0.1-0.5,0.2-0.7c0.1-0.2,0.3-0.4,0.6-0.5v0c-0.1-0.1-0.3-0.2-0.4-0.4
			c-0.1-0.2-0.1-0.3-0.1-0.6c0-0.2,0.1-0.4,0.2-0.6c0.1-0.2,0.3-0.3,0.4-0.4v0c-0.2-0.1-0.4-0.3-0.5-0.6c-0.1-0.3-0.2-0.6-0.2-0.9
			c0-0.3,0.1-0.6,0.2-0.9c0.1-0.3,0.3-0.5,0.5-0.6c0.2-0.2,0.4-0.3,0.7-0.4c0.3-0.1,0.6-0.1,0.9-0.1c0.2,0,0.3,0,0.4,0
			c0.1,0,0.3,0.1,0.4,0.1h2v1h-1c0.1,0.1,0.2,0.2,0.2,0.4c0.1,0.2,0.1,0.3,0.1,0.5c0,0.3-0.1,0.6-0.2,0.8s-0.3,0.4-0.5,0.6
			s-0.4,0.3-0.7,0.4c-0.3,0.1-0.5,0.1-0.8,0.1c-0.1,0-0.2,0-0.4,0c-0.1,0-0.3-0.1-0.4-0.1c-0.1,0.1-0.2,0.2-0.2,0.2
			c0,0.1-0.1,0.2-0.1,0.3c0,0.2,0.1,0.3,0.2,0.4c0.1,0.1,0.4,0.1,0.7,0.1h1c0.7,0,1.2,0.1,1.5,0.3c0.3,0.2,0.5,0.6,0.5,1.1
			c0,0.3-0.1,0.5-0.2,0.8c-0.1,0.2-0.3,0.5-0.6,0.6c-0.3,0.2-0.6,0.3-1,0.4c-0.4,0.1-0.8,0.2-1.2,0.2c-0.3,0-0.7,0-0.9-0.1
			c-0.3-0.1-0.5-0.2-0.7-0.3c-0.2-0.1-0.4-0.3-0.5-0.5C34.9,68.4,34.8,68.1,34.8,67.9z M35.9,67.7c0,0.3,0.1,0.5,0.4,0.6
			c0.3,0.1,0.6,0.2,1.1,0.2c0.5,0,0.8-0.1,1.1-0.3s0.4-0.4,0.4-0.6c0-0.2-0.1-0.4-0.3-0.4c-0.2-0.1-0.4-0.1-0.7-0.1h-0.8
			c-0.3,0-0.6,0-0.8-0.1C36.1,67.2,35.9,67.4,35.9,67.7z M37.2,64.3c0.3,0,0.5-0.1,0.7-0.3c0.2-0.2,0.3-0.5,0.3-0.8
			c0-0.4-0.1-0.6-0.3-0.8S37.5,62,37.2,62s-0.5,0.1-0.7,0.3c-0.2,0.2-0.3,0.5-0.3,0.8c0,0.4,0.1,0.7,0.3,0.8
			C36.7,64.2,37,64.3,37.2,64.3z"/>
		<path class="st8" d="M43.7,59.4h1.5l1.4,3.7l0.5,1.4h0l0.5-1.4l1.3-3.7h1.5v7.5h-1.3v-3.4c0-0.2,0-0.4,0-0.6c0-0.2,0-0.4,0-0.6
			c0-0.2,0-0.4,0.1-0.6c0-0.2,0-0.4,0.1-0.6h0l-0.6,1.7l-1.3,3.4h-0.6l-1.3-3.4L44.8,61h0c0,0.2,0,0.4,0.1,0.6c0,0.2,0,0.4,0.1,0.6
			s0,0.4,0,0.6c0,0.2,0,0.4,0,0.6v3.4h-1.2V59.4z"/>
		<path class="st8" d="M51.8,64.1c0-0.5,0.1-0.9,0.2-1.3c0.1-0.4,0.3-0.7,0.6-0.9c0.2-0.3,0.5-0.4,0.9-0.6c0.3-0.1,0.7-0.2,1-0.2
			c0.4,0,0.7,0.1,1,0.2c0.3,0.1,0.6,0.3,0.9,0.6c0.2,0.3,0.4,0.6,0.6,0.9c0.1,0.4,0.2,0.8,0.2,1.3c0,0.5-0.1,0.9-0.2,1.3
			c-0.1,0.4-0.3,0.7-0.6,0.9c-0.2,0.3-0.5,0.4-0.9,0.6c-0.3,0.1-0.7,0.2-1,0.2c-0.4,0-0.7-0.1-1-0.2c-0.3-0.1-0.6-0.3-0.9-0.6
			c-0.2-0.3-0.4-0.6-0.6-0.9C51.8,64.9,51.8,64.5,51.8,64.1z M53.1,64.1c0,0.6,0.1,1,0.4,1.4c0.2,0.3,0.6,0.5,1,0.5
			c0.4,0,0.7-0.2,1-0.5c0.2-0.3,0.4-0.8,0.4-1.4c0-0.6-0.1-1-0.4-1.4c-0.2-0.3-0.6-0.5-1-0.5c-0.4,0-0.7,0.2-1,0.5
			C53.2,63,53.1,63.5,53.1,64.1z"/>
		<path class="st8" d="M58.6,62.3h-0.8v-1l0.9-0.1l0.2-1.5H60v1.5h1.4v1H60V65c0,0.7,0.3,1,0.8,1c0.1,0,0.2,0,0.3,0
			c0.1,0,0.2-0.1,0.3-0.1l0.2,1c-0.2,0.1-0.3,0.1-0.5,0.1c-0.2,0-0.4,0.1-0.6,0.1c-0.3,0-0.6,0-0.8-0.1c-0.2-0.1-0.4-0.2-0.6-0.4
			s-0.2-0.4-0.3-0.6c-0.1-0.2-0.1-0.5-0.1-0.8V62.3z"/>
		<path class="st8" d="M62.1,64.1c0-0.5,0.1-0.9,0.2-1.3c0.1-0.4,0.3-0.7,0.6-0.9c0.2-0.3,0.5-0.4,0.9-0.6c0.3-0.1,0.7-0.2,1-0.2
			c0.4,0,0.7,0.1,1,0.2c0.3,0.1,0.6,0.3,0.9,0.6c0.2,0.3,0.4,0.6,0.6,0.9c0.1,0.4,0.2,0.8,0.2,1.3c0,0.5-0.1,0.9-0.2,1.3
			c-0.1,0.4-0.3,0.7-0.6,0.9c-0.2,0.3-0.5,0.4-0.9,0.6c-0.3,0.1-0.7,0.2-1,0.2c-0.4,0-0.7-0.1-1-0.2c-0.3-0.1-0.6-0.3-0.9-0.6
			c-0.2-0.3-0.4-0.6-0.6-0.9C62.2,64.9,62.1,64.5,62.1,64.1z M63.5,64.1c0,0.6,0.1,1,0.4,1.4c0.2,0.3,0.6,0.5,1,0.5
			c0.4,0,0.7-0.2,1-0.5c0.2-0.3,0.4-0.8,0.4-1.4c0-0.6-0.1-1-0.4-1.4c-0.2-0.3-0.6-0.5-1-0.5c-0.4,0-0.7,0.2-1,0.5
			C63.6,63,63.5,63.5,63.5,64.1z"/>
		<path class="st8" d="M68.8,61.2h1.1l0.1,1h0c0.2-0.4,0.4-0.7,0.7-0.8c0.3-0.2,0.6-0.3,0.9-0.3c0.3,0,0.5,0,0.6,0.1l-0.2,1.2
			c-0.1,0-0.2-0.1-0.3-0.1s-0.2,0-0.3,0c-0.2,0-0.5,0.1-0.7,0.3c-0.2,0.2-0.5,0.5-0.6,0.9v3.5h-1.3V61.2z"/>
		<path class="st8" d="M73.8,60.2c-0.2,0-0.4-0.1-0.6-0.2C73,59.9,73,59.7,73,59.5s0.1-0.4,0.2-0.5c0.2-0.1,0.3-0.2,0.6-0.2
			c0.2,0,0.4,0.1,0.6,0.2c0.2,0.1,0.2,0.3,0.2,0.5s-0.1,0.4-0.2,0.5C74.2,60.2,74,60.2,73.8,60.2z M73.1,61.2h1.3v5.7h-1.3V61.2z"/>
		<path class="st8" d="M76.2,65.4c0.3,0.2,0.5,0.4,0.8,0.5c0.2,0.1,0.5,0.2,0.8,0.2c0.3,0,0.5-0.1,0.7-0.2c0.1-0.1,0.2-0.3,0.2-0.5
			c0-0.1,0-0.2-0.1-0.3c-0.1-0.1-0.2-0.2-0.3-0.2s-0.2-0.1-0.4-0.2s-0.3-0.1-0.4-0.2c-0.2-0.1-0.4-0.1-0.6-0.2
			c-0.2-0.1-0.4-0.2-0.5-0.3c-0.1-0.1-0.3-0.3-0.4-0.5c-0.1-0.2-0.1-0.4-0.1-0.6c0-0.5,0.2-0.9,0.6-1.2c0.4-0.3,0.9-0.5,1.5-0.5
			c0.4,0,0.7,0.1,1.1,0.2c0.3,0.1,0.6,0.3,0.8,0.5l-0.6,0.8c-0.2-0.1-0.4-0.3-0.6-0.4c-0.2-0.1-0.4-0.1-0.6-0.1
			c-0.3,0-0.5,0.1-0.6,0.2c-0.1,0.1-0.2,0.3-0.2,0.4c0,0.1,0,0.2,0.1,0.3c0.1,0.1,0.2,0.2,0.3,0.2s0.2,0.1,0.4,0.2
			c0.1,0.1,0.3,0.1,0.4,0.2c0.2,0.1,0.4,0.1,0.6,0.2c0.2,0.1,0.4,0.2,0.5,0.3c0.2,0.1,0.3,0.3,0.4,0.5c0.1,0.2,0.1,0.4,0.1,0.7
			c0,0.2,0,0.5-0.1,0.7c-0.1,0.2-0.2,0.4-0.4,0.6c-0.2,0.2-0.4,0.3-0.7,0.4S78.1,67,77.7,67c-0.4,0-0.8-0.1-1.2-0.2
			c-0.4-0.2-0.7-0.3-1-0.6L76.2,65.4z"/>
		<path class="st8" d="M81.3,62.3h-0.8v-1l0.9-0.1l0.2-1.5h1.1v1.5h1.4v1h-1.4V65c0,0.7,0.3,1,0.8,1c0.1,0,0.2,0,0.3,0
			c0.1,0,0.2-0.1,0.3-0.1l0.2,1c-0.2,0.1-0.3,0.1-0.5,0.1c-0.2,0-0.4,0.1-0.6,0.1c-0.3,0-0.6,0-0.8-0.1c-0.2-0.1-0.4-0.2-0.6-0.4
			s-0.2-0.4-0.3-0.6c-0.1-0.2-0.1-0.5-0.1-0.8V62.3z"/>
		<path class="st8" d="M85.3,65.4c0.3,0.2,0.5,0.4,0.8,0.5c0.2,0.1,0.5,0.2,0.8,0.2c0.3,0,0.5-0.1,0.7-0.2c0.1-0.1,0.2-0.3,0.2-0.5
			c0-0.1,0-0.2-0.1-0.3c-0.1-0.1-0.2-0.2-0.3-0.2s-0.2-0.1-0.4-0.2s-0.3-0.1-0.4-0.2c-0.2-0.1-0.4-0.1-0.6-0.2
			c-0.2-0.1-0.4-0.2-0.5-0.3c-0.1-0.1-0.3-0.3-0.4-0.5C85,63.2,85,63,85,62.8c0-0.5,0.2-0.9,0.6-1.2c0.4-0.3,0.9-0.5,1.5-0.5
			c0.4,0,0.7,0.1,1.1,0.2c0.3,0.1,0.6,0.3,0.8,0.5l-0.6,0.8c-0.2-0.1-0.4-0.3-0.6-0.4c-0.2-0.1-0.4-0.1-0.6-0.1
			c-0.3,0-0.5,0.1-0.6,0.2c-0.1,0.1-0.2,0.3-0.2,0.4c0,0.1,0,0.2,0.1,0.3c0.1,0.1,0.2,0.2,0.3,0.2s0.2,0.1,0.4,0.2
			c0.1,0.1,0.3,0.1,0.4,0.2c0.2,0.1,0.4,0.1,0.6,0.2c0.2,0.1,0.4,0.2,0.5,0.3c0.2,0.1,0.3,0.3,0.4,0.5C89,64.8,89,65,89,65.3
			c0,0.2,0,0.5-0.1,0.7c-0.1,0.2-0.2,0.4-0.4,0.6c-0.2,0.2-0.4,0.3-0.7,0.4S87.2,67,86.8,67c-0.4,0-0.8-0.1-1.2-0.2
			c-0.4-0.2-0.7-0.3-1-0.6L85.3,65.4z"/>
		<path class="st8" d="M92.2,64.1c0-0.5,0.1-0.9,0.2-1.3c0.1-0.4,0.3-0.7,0.6-0.9c0.2-0.3,0.5-0.4,0.9-0.6c0.3-0.1,0.7-0.2,1-0.2
			c0.4,0,0.7,0.1,1,0.2c0.3,0.1,0.6,0.3,0.9,0.6c0.2,0.3,0.4,0.6,0.6,0.9c0.1,0.4,0.2,0.8,0.2,1.3c0,0.5-0.1,0.9-0.2,1.3
			c-0.1,0.4-0.3,0.7-0.6,0.9c-0.2,0.3-0.5,0.4-0.9,0.6c-0.3,0.1-0.7,0.2-1,0.2c-0.4,0-0.7-0.1-1-0.2c-0.3-0.1-0.6-0.3-0.9-0.6
			c-0.2-0.3-0.4-0.6-0.6-0.9C92.3,64.9,92.2,64.5,92.2,64.1z M93.6,64.1c0,0.6,0.1,1,0.4,1.4c0.2,0.3,0.6,0.5,1,0.5
			c0.4,0,0.7-0.2,1-0.5c0.2-0.3,0.4-0.8,0.4-1.4c0-0.6-0.1-1-0.4-1.4c-0.2-0.3-0.6-0.5-1-0.5c-0.4,0-0.7,0.2-1,0.5
			C93.7,63,93.6,63.5,93.6,64.1z"/>
		<path class="st8" d="M98.9,61.2h1.1l0.1,0.8h0c0.3-0.2,0.5-0.5,0.8-0.6s0.6-0.3,1-0.3c0.6,0,1,0.2,1.3,0.6
			c0.3,0.4,0.4,0.9,0.4,1.7v3.5h-1.3v-3.4c0-0.5-0.1-0.8-0.2-1s-0.4-0.3-0.7-0.3c-0.2,0-0.5,0.1-0.7,0.2s-0.4,0.3-0.6,0.5v3.9h-1.3
			V61.2z"/>
		<path class="st8" d="M107.9,62.3h-0.8v-1l0.9-0.1l0.2-1.5h1.1v1.5h1.4v1h-1.4V65c0,0.7,0.3,1,0.8,1c0.1,0,0.2,0,0.3,0
			c0.1,0,0.2-0.1,0.3-0.1l0.2,1c-0.2,0.1-0.3,0.1-0.5,0.1c-0.2,0-0.4,0.1-0.6,0.1c-0.3,0-0.6,0-0.8-0.1c-0.2-0.1-0.4-0.2-0.6-0.4
			c-0.1-0.2-0.2-0.4-0.3-0.6c-0.1-0.2-0.1-0.5-0.1-0.8V62.3z"/>
		<path class="st8" d="M111.8,58.8h1.3v2.1l0,1.1c0.2-0.2,0.5-0.4,0.8-0.6s0.6-0.3,1-0.3c0.6,0,1,0.2,1.3,0.6
			c0.3,0.4,0.4,0.9,0.4,1.7v3.5h-1.3v-3.4c0-0.5-0.1-0.8-0.2-1c-0.1-0.2-0.4-0.3-0.7-0.3c-0.2,0-0.5,0.1-0.7,0.2
			c-0.2,0.1-0.4,0.3-0.6,0.5v3.9h-1.3V58.8z"/>
		<path class="st8" d="M117.9,64.1c0-0.5,0.1-0.9,0.2-1.2c0.1-0.4,0.3-0.7,0.6-0.9c0.2-0.3,0.5-0.4,0.8-0.6c0.3-0.1,0.6-0.2,1-0.2
			c0.4,0,0.7,0.1,1,0.2c0.3,0.1,0.5,0.3,0.7,0.6c0.2,0.2,0.3,0.5,0.4,0.9c0.1,0.3,0.1,0.7,0.1,1.1c0,0.3,0,0.5-0.1,0.6h-3.6
			c0.1,0.5,0.2,0.9,0.5,1.2c0.3,0.3,0.7,0.4,1.1,0.4c0.2,0,0.5,0,0.7-0.1c0.2-0.1,0.4-0.2,0.6-0.3l0.4,0.8c-0.3,0.2-0.6,0.3-0.9,0.4
			s-0.7,0.2-1,0.2c-0.4,0-0.8-0.1-1.1-0.2c-0.3-0.1-0.6-0.3-0.9-0.6c-0.3-0.3-0.5-0.6-0.6-0.9C118,64.9,117.9,64.5,117.9,64.1z
			 M121.7,63.6c0-0.5-0.1-0.8-0.3-1.1c-0.2-0.3-0.5-0.4-0.9-0.4c-0.3,0-0.6,0.1-0.9,0.4c-0.3,0.2-0.4,0.6-0.5,1.1H121.7z"/>
		<path class="st8" d="M130.7,66.9l-1.6-2.9h-1.2v2.9h-1.3v-7.5h2.5c0.4,0,0.8,0,1.1,0.1c0.3,0.1,0.6,0.2,0.9,0.4
			c0.2,0.2,0.4,0.4,0.6,0.7c0.1,0.3,0.2,0.6,0.2,1.1c0,0.6-0.1,1-0.4,1.4c-0.3,0.4-0.6,0.6-1.1,0.8l1.8,3.1H130.7z M127.9,62.9h1.1
			c0.5,0,0.9-0.1,1.2-0.3s0.4-0.5,0.4-1c0-0.4-0.1-0.7-0.4-0.9s-0.7-0.3-1.2-0.3h-1.1V62.9z"/>
		<path class="st8" d="M132.9,64.1c0-0.5,0.1-0.9,0.2-1.3c0.1-0.4,0.3-0.7,0.6-0.9c0.2-0.3,0.5-0.4,0.9-0.6c0.3-0.1,0.7-0.2,1-0.2
			c0.4,0,0.7,0.1,1,0.2c0.3,0.1,0.6,0.3,0.9,0.6c0.2,0.3,0.4,0.6,0.6,0.9c0.1,0.4,0.2,0.8,0.2,1.3c0,0.5-0.1,0.9-0.2,1.3
			c-0.1,0.4-0.3,0.7-0.6,0.9c-0.2,0.3-0.5,0.4-0.9,0.6c-0.3,0.1-0.7,0.2-1,0.2c-0.4,0-0.7-0.1-1-0.2c-0.3-0.1-0.6-0.3-0.9-0.6
			c-0.2-0.3-0.4-0.6-0.6-0.9C133,64.9,132.9,64.5,132.9,64.1z M134.2,64.1c0,0.6,0.1,1,0.4,1.4c0.2,0.3,0.6,0.5,1,0.5
			c0.4,0,0.7-0.2,1-0.5c0.2-0.3,0.4-0.8,0.4-1.4c0-0.6-0.1-1-0.4-1.4c-0.2-0.3-0.6-0.5-1-0.5c-0.4,0-0.7,0.2-1,0.5
			S134.2,63.5,134.2,64.1z"/>
		<path class="st8" d="M139.2,65.4c0-0.6,0.3-1.1,0.8-1.4c0.5-0.3,1.4-0.6,2.5-0.7c0-0.1,0-0.3-0.1-0.4c0-0.1-0.1-0.3-0.2-0.4
			c-0.1-0.1-0.2-0.2-0.3-0.2s-0.3-0.1-0.5-0.1c-0.3,0-0.6,0.1-0.8,0.2c-0.3,0.1-0.5,0.2-0.8,0.4l-0.5-0.9c0.3-0.2,0.7-0.4,1.1-0.5
			c0.4-0.1,0.8-0.2,1.3-0.2c0.7,0,1.2,0.2,1.6,0.6c0.3,0.4,0.5,1,0.5,1.8v3.4h-1.1l-0.1-0.6h0c-0.3,0.2-0.5,0.4-0.8,0.5
			c-0.3,0.1-0.6,0.2-0.9,0.2c-0.5,0-0.9-0.2-1.2-0.5C139.3,66.3,139.2,65.9,139.2,65.4z M140.5,65.3c0,0.3,0.1,0.4,0.2,0.6
			c0.2,0.1,0.3,0.2,0.6,0.2c0.2,0,0.4-0.1,0.6-0.2c0.2-0.1,0.4-0.3,0.6-0.5v-1.3c-0.4,0-0.7,0.1-1,0.2c-0.3,0.1-0.5,0.2-0.6,0.3
			s-0.3,0.2-0.3,0.3C140.5,65,140.5,65.1,140.5,65.3z"/>
		<path class="st8" d="M145.1,64.1c0-0.5,0.1-0.9,0.2-1.2c0.1-0.4,0.3-0.7,0.5-0.9c0.2-0.3,0.5-0.4,0.8-0.6c0.3-0.1,0.6-0.2,0.9-0.2
			c0.3,0,0.6,0.1,0.8,0.2s0.4,0.3,0.7,0.5l0-0.9v-2h1.3v8.1h-1.1l-0.1-0.6h0c-0.2,0.2-0.4,0.4-0.7,0.5c-0.3,0.1-0.6,0.2-0.9,0.2
			c-0.7,0-1.3-0.3-1.7-0.8C145.3,65.7,145.1,65,145.1,64.1z M146.5,64c0,0.6,0.1,1.1,0.3,1.4s0.5,0.5,0.9,0.5c0.4,0,0.8-0.2,1.2-0.6
			v-2.6c-0.2-0.2-0.4-0.3-0.6-0.4c-0.2-0.1-0.4-0.1-0.6-0.1c-0.4,0-0.7,0.2-0.9,0.5S146.5,63.4,146.5,64z"/>
		<path class="st8" d="M154.4,59.4h1.4l2.3,4.2l0.8,1.6h0c0-0.4-0.1-0.8-0.1-1.3c0-0.4-0.1-0.9-0.1-1.3v-3.3h1.3v7.5h-1.4l-2.3-4.2
			l-0.8-1.6h0c0,0.4,0.1,0.8,0.1,1.3s0.1,0.9,0.1,1.3v3.3h-1.3V59.4z"/>
		<path class="st8" d="M161.6,65.4c0-0.6,0.3-1.1,0.8-1.4c0.5-0.3,1.4-0.6,2.5-0.7c0-0.1,0-0.3-0.1-0.4c0-0.1-0.1-0.3-0.2-0.4
			c-0.1-0.1-0.2-0.2-0.3-0.2s-0.3-0.1-0.5-0.1c-0.3,0-0.6,0.1-0.8,0.2c-0.3,0.1-0.5,0.2-0.8,0.4l-0.5-0.9c0.3-0.2,0.7-0.4,1.1-0.5
			c0.4-0.1,0.8-0.2,1.3-0.2c0.7,0,1.2,0.2,1.6,0.6c0.3,0.4,0.5,1,0.5,1.8v3.4h-1.1l-0.1-0.6h0c-0.3,0.2-0.5,0.4-0.8,0.5
			c-0.3,0.1-0.6,0.2-0.9,0.2c-0.5,0-0.9-0.2-1.2-0.5C161.8,66.3,161.6,65.9,161.6,65.4z M162.9,65.3c0,0.3,0.1,0.4,0.2,0.6
			c0.2,0.1,0.3,0.2,0.6,0.2c0.2,0,0.4-0.1,0.6-0.2c0.2-0.1,0.4-0.3,0.6-0.5v-1.3c-0.4,0-0.7,0.1-1,0.2c-0.3,0.1-0.5,0.2-0.6,0.3
			s-0.3,0.2-0.3,0.3C162.9,65,162.9,65.1,162.9,65.3z"/>
		<path class="st8" d="M168.1,62.3h-0.8v-1l0.9-0.1l0.2-1.5h1.1v1.5h1.4v1h-1.4V65c0,0.7,0.3,1,0.8,1c0.1,0,0.2,0,0.3,0
			c0.1,0,0.2-0.1,0.3-0.1l0.2,1c-0.2,0.1-0.3,0.1-0.5,0.1c-0.2,0-0.4,0.1-0.6,0.1c-0.3,0-0.6,0-0.8-0.1c-0.2-0.1-0.4-0.2-0.6-0.4
			c-0.1-0.2-0.2-0.4-0.3-0.6c-0.1-0.2-0.1-0.5-0.1-0.8V62.3z"/>
		<path class="st8" d="M172.7,60.2c-0.2,0-0.4-0.1-0.6-0.2c-0.2-0.1-0.2-0.3-0.2-0.5s0.1-0.4,0.2-0.5c0.2-0.1,0.3-0.2,0.6-0.2
			c0.2,0,0.4,0.1,0.6,0.2c0.2,0.1,0.2,0.3,0.2,0.5s-0.1,0.4-0.2,0.5C173.1,60.2,172.9,60.2,172.7,60.2z M172,61.2h1.3v5.7H172V61.2z
			"/>
		<path class="st8" d="M174.7,64.1c0-0.5,0.1-0.9,0.2-1.3c0.1-0.4,0.3-0.7,0.6-0.9c0.2-0.3,0.5-0.4,0.9-0.6c0.3-0.1,0.7-0.2,1-0.2
			c0.4,0,0.7,0.1,1,0.2c0.3,0.1,0.6,0.3,0.9,0.6c0.2,0.3,0.4,0.6,0.6,0.9c0.1,0.4,0.2,0.8,0.2,1.3c0,0.5-0.1,0.9-0.2,1.3
			c-0.1,0.4-0.3,0.7-0.6,0.9c-0.2,0.3-0.5,0.4-0.9,0.6c-0.3,0.1-0.7,0.2-1,0.2c-0.4,0-0.7-0.1-1-0.2c-0.3-0.1-0.6-0.3-0.9-0.6
			c-0.2-0.3-0.4-0.6-0.6-0.9C174.8,64.9,174.7,64.5,174.7,64.1z M176,64.1c0,0.6,0.1,1,0.4,1.4c0.2,0.3,0.6,0.5,1,0.5
			c0.4,0,0.7-0.2,1-0.5c0.2-0.3,0.4-0.8,0.4-1.4c0-0.6-0.1-1-0.4-1.4c-0.2-0.3-0.6-0.5-1-0.5c-0.4,0-0.7,0.2-1,0.5
			S176,63.5,176,64.1z"/>
		<path class="st8" d="M181.4,61.2h1.1l0.1,0.8h0c0.3-0.2,0.5-0.5,0.8-0.6c0.3-0.2,0.6-0.3,1-0.3c0.6,0,1,0.2,1.3,0.6
			c0.3,0.4,0.4,0.9,0.4,1.7v3.5h-1.3v-3.4c0-0.5-0.1-0.8-0.2-1c-0.1-0.2-0.4-0.3-0.7-0.3c-0.2,0-0.5,0.1-0.7,0.2
			c-0.2,0.1-0.4,0.3-0.6,0.5v3.9h-1.3V61.2z"/>
		<path class="st8" d="M187.3,61.2h1.3l0.7,2.9c0.1,0.3,0.1,0.5,0.2,0.8s0.1,0.5,0.1,0.8h0c0.1-0.3,0.1-0.5,0.2-0.8s0.1-0.5,0.2-0.8
			l0.7-2.9h1.2l0.7,2.9c0.1,0.3,0.1,0.5,0.2,0.8s0.1,0.5,0.2,0.8h0c0.1-0.3,0.1-0.5,0.1-0.8c0-0.3,0.1-0.5,0.2-0.8l0.7-2.9h1.2
			l-1.4,5.7h-1.6l-0.7-2.6c-0.1-0.3-0.1-0.5-0.2-0.8s-0.1-0.5-0.2-0.8h0c-0.1,0.3-0.1,0.6-0.2,0.9s-0.1,0.5-0.2,0.8l-0.6,2.6h-1.5
			L187.3,61.2z"/>
		<path class="st8" d="M197.1,60.2c-0.2,0-0.4-0.1-0.6-0.2c-0.2-0.1-0.2-0.3-0.2-0.5s0.1-0.4,0.2-0.5c0.2-0.1,0.3-0.2,0.6-0.2
			c0.2,0,0.4,0.1,0.6,0.2c0.2,0.1,0.2,0.3,0.2,0.5s-0.1,0.4-0.2,0.5C197.5,60.2,197.3,60.2,197.1,60.2z M196.4,61.2h1.3v5.7h-1.3
			V61.2z"/>
		<path class="st8" d="M199.1,64.1c0-0.5,0.1-0.9,0.2-1.2c0.1-0.4,0.3-0.7,0.5-0.9c0.2-0.3,0.5-0.4,0.8-0.6c0.3-0.1,0.6-0.2,0.9-0.2
			c0.3,0,0.6,0.1,0.8,0.2s0.4,0.3,0.7,0.5l0-0.9v-2h1.3v8.1h-1.1l-0.1-0.6h0c-0.2,0.2-0.4,0.4-0.7,0.5c-0.3,0.1-0.6,0.2-0.9,0.2
			c-0.7,0-1.3-0.3-1.7-0.8C199.3,65.7,199.1,65,199.1,64.1z M200.5,64c0,0.6,0.1,1.1,0.3,1.4s0.5,0.5,0.9,0.5c0.4,0,0.8-0.2,1.2-0.6
			v-2.6c-0.2-0.2-0.4-0.3-0.6-0.4c-0.2-0.1-0.4-0.1-0.6-0.1c-0.4,0-0.7,0.2-0.9,0.5S200.5,63.4,200.5,64z"/>
		<path class="st8" d="M205.6,64.1c0-0.5,0.1-0.9,0.2-1.2c0.1-0.4,0.3-0.7,0.6-0.9c0.2-0.3,0.5-0.4,0.8-0.6c0.3-0.1,0.6-0.2,1-0.2
			c0.4,0,0.7,0.1,1,0.2c0.3,0.1,0.5,0.3,0.7,0.6c0.2,0.2,0.3,0.5,0.4,0.9c0.1,0.3,0.1,0.7,0.1,1.1c0,0.3,0,0.5-0.1,0.6h-3.6
			c0.1,0.5,0.2,0.9,0.5,1.2c0.3,0.3,0.7,0.4,1.1,0.4c0.2,0,0.5,0,0.7-0.1c0.2-0.1,0.4-0.2,0.6-0.3l0.4,0.8c-0.3,0.2-0.6,0.3-0.9,0.4
			s-0.7,0.2-1,0.2c-0.4,0-0.8-0.1-1.1-0.2c-0.3-0.1-0.6-0.3-0.9-0.6c-0.3-0.3-0.5-0.6-0.6-0.9C205.6,64.9,205.6,64.5,205.6,64.1z
			 M209.4,63.6c0-0.5-0.1-0.8-0.3-1.1c-0.2-0.3-0.5-0.4-0.9-0.4c-0.3,0-0.6,0.1-0.9,0.4c-0.3,0.2-0.4,0.6-0.5,1.1H209.4z"/>
	</g>
</g>
</svg>
